<?xml version="1.0" encoding="utf-8"?>
<!-- Generator: Adobe Illustrator 22.0.1, SVG Export Plug-In . SVG Version: 6.00 Build 0)  -->
<svg version="1.1" id="Layer_1" xmlns="http://www.w3.org/2000/svg" xmlns:xlink="http://www.w3.org/1999/xlink" x="0px" y="0px"
	 viewBox="0 0 518.8 303.2" enable-background="new 0 0 518.8 303.2" xml:space="preserve">
<g>
	<g>
		<g>
			<path fill="#077797" d="M355.6,171.1l-2.3-14.9c0-0.2-0.3-0.3-0.5-0.2l-12.8,8.4c-0.3,0.2-0.7-0.2-0.4-0.5l11.3-10.9
				c0.2-0.2,0.1-0.4-0.1-0.5l-8.2-2.4c-0.3-0.1-0.3-0.6,0.1-0.6l8-0.5c0.3,0,0.4-0.3,0.2-0.5l-10.4-11.1c-0.3-0.3,0.1-0.7,0.5-0.4
				l13.2,10.4c0.2,0.2,0.5,0,0.5-0.2l1.5-12.6c0-0.4,0.6-0.4,0.7,0l1,13.3c0,0.2,0.3,0.4,0.5,0.3l10.8-5.3c0.3-0.2,0.7,0.3,0.4,0.5
				l-7.9,6.5c-0.2,0.2-0.1,0.5,0.1,0.5l9.4,2.3c0.4,0.1,0.3,0.6-0.1,0.6h-8.5c-0.3,0-0.4,0.3-0.2,0.5l7.6,8.1
				c0.2,0.3-0.1,0.6-0.4,0.5l-9.9-4.6c-0.2-0.1-0.4,0-0.5,0.2l-2.8,13.2C356.1,171.4,355.6,171.4,355.6,171.1 M355.3,174.8
				c13.1,0,23.7-10.2,23.7-22.7c0-12.5-10.6-22.7-23.7-22.7c-13.1,0-23.7,10.2-23.7,22.7C331.6,164.6,342.3,174.8,355.3,174.8"/>
			<path fill="#077797" d="M481.5,216.3l-3.6-23.7c-0.1-0.4-0.5-0.5-0.8-0.3l-20.4,13.4c-0.5,0.4-1.1-0.3-0.7-0.8l18-17.4
				c0.3-0.3,0.2-0.7-0.2-0.8l-13.1-3.8c-0.6-0.2-0.5-0.9,0.1-1l12.8-0.7c0.4,0,0.6-0.5,0.4-0.8l-16.6-17.7c-0.4-0.5,0.2-1.1,0.7-0.7
				l21,16.6c0.3,0.3,0.8,0.1,0.9-0.3l2.4-20c0.1-0.6,1-0.6,1,0l1.6,21.2c0,0.4,0.4,0.6,0.8,0.4l17.2-8.4c0.5-0.3,1.1,0.4,0.6,0.8
				L491,182.5c-0.3,0.3-0.2,0.7,0.2,0.8l14.9,3.7c0.6,0.1,0.5,1-0.1,1h-13.5c-0.4,0-0.7,0.5-0.4,0.8l12.1,12.9
				c0.4,0.4-0.1,1-0.6,0.8l-15.7-7.4c-0.3-0.1-0.7,0-0.7,0.3l-4.5,21C482.4,216.9,481.6,216.9,481.5,216.3 M481.1,222.2
				c20.8,0,37.7-16.2,37.7-36.1c0-20-16.9-36.1-37.7-36.1c-20.8,0-37.7,16.2-37.7,36.1C443.4,206,460.3,222.2,481.1,222.2"/>
			<path fill="#F2B826" d="M271.1,22.7c0,12.5,10.2,22.7,22.7,22.7c12.5,0,22.7-10.2,22.7-22.7c0-12.5-10.2-22.7-22.7-22.7
				C281.2,0,271.1,10.2,271.1,22.7"/>
			<path fill="#F2B826" d="M366.6,271.1c0,12.5,10.2,22.7,22.7,22.7c12.5,0,22.7-10.2,22.7-22.7c0-12.5-10.2-22.7-22.7-22.7
				C376.8,248.4,366.6,258.5,366.6,271.1"/>
			<path fill="#F98A3C" d="M384.7,202.9c0,12.5,10.2,22.7,22.7,22.7c12.5,0,22.7-10.2,22.7-22.7c0-12.5-10.2-22.7-22.7-22.7
				C394.9,180.2,384.7,190.4,384.7,202.9"/>
			<path fill="#F05E5D" d="M308.9,77.2c0,12.5,10.2,22.7,22.7,22.7c12.5,0,22.7-10.2,22.7-22.7c0-12.5-10.2-22.7-22.7-22.7
				C319.1,54.5,308.9,64.6,308.9,77.2"/>
			<path fill="#A7C38D" d="M88.5,279.5c0,12.5,10.2,22.7,22.7,22.7c12.5,0,22.7-10.2,22.7-22.7c0-12.5-10.2-22.7-22.7-22.7
				C98.6,256.8,88.5,267,88.5,279.5"/>
			<path fill="#F05E5D" d="M426.4,28.7c0,12.5,10.2,22.7,22.7,22.7c12.5,0,22.7-10.2,22.7-22.7c0-12.5-10.2-22.7-22.7-22.7
				C436.6,6,426.4,16.1,426.4,28.7"/>
			<path fill="#F05E5D" d="M284.8,279.5c0,12.5,10.2,22.7,22.7,22.7c12.5,0,22.7-10.2,22.7-22.7c0-12.5-10.2-22.7-22.7-22.7
				C294.9,256.8,284.8,267,284.8,279.5"/>
			<path fill="#A7C38D" d="M374.8,109.3c0,12.5,10.2,22.7,22.7,22.7c12.5,0,22.7-10.2,22.7-22.7c0-12.5-10.2-22.7-22.7-22.7
				C384.9,86.5,374.8,96.7,374.8,109.3"/>
			<path fill="#F98A3C" d="M356.3,34.4c0,12.5,10.2,22.7,22.7,22.7c12.5,0,22.7-10.2,22.7-22.7c0-12.5-10.2-22.7-22.7-22.7
				C366.5,11.6,356.3,21.8,356.3,34.4"/>
			<path fill="#F98A3C" d="M43,233.6c0,12.5,10.2,22.7,22.7,22.7c12.5,0,22.7-10.2,22.7-22.7c0-12.5-10.2-22.7-22.7-22.7
				C53.2,210.9,43,221.1,43,233.6"/>
			<path fill="#A7C38D" d="M316.4,225.7c0,12.5,10.2,22.7,22.7,22.7s22.7-10.2,22.7-22.7c0-12.5-10.2-22.7-22.7-22.7
				S316.4,213.1,316.4,225.7"/>
			<path fill="#077797" d="M255.7,215l2.3,14.9c0,0.2,0.3,0.3,0.5,0.2l12.8-8.4c0.3-0.2,0.7,0.2,0.4,0.5l-11.3,10.9
				c-0.2,0.2-0.1,0.4,0.1,0.5l8.2,2.4c0.3,0.1,0.3,0.6-0.1,0.6l-8,0.5c-0.3,0-0.4,0.3-0.2,0.5l10.4,11.1c0.3,0.3-0.1,0.7-0.5,0.4
				l-13.2-10.4c-0.2-0.2-0.5,0-0.5,0.2l-1.5,12.6c0,0.4-0.6,0.4-0.7,0l-1-13.3c0-0.2-0.3-0.4-0.5-0.3l-10.8,5.3
				c-0.3,0.2-0.7-0.3-0.4-0.5l7.9-6.5c0.2-0.2,0.1-0.5-0.1-0.5l-9.4-2.3c-0.4-0.1-0.3-0.6,0.1-0.6h8.5c0.3,0,0.4-0.3,0.2-0.5
				l-7.6-8.1c-0.2-0.3,0.1-0.6,0.4-0.5l9.9,4.6c0.2,0.1,0.4,0,0.5-0.2l2.8-13.2C255.1,214.6,255.6,214.6,255.7,215 M255.9,211.3
				c-13.1,0-23.7,10.2-23.7,22.7c0,12.5,10.6,22.7,23.7,22.7s23.7-10.2,23.7-22.7C279.6,221.4,269,211.3,255.9,211.3"/>
			<path fill="#077797" d="M248.7,63l3.6,23.7c0.1,0.4,0.5,0.5,0.8,0.3l20.4-13.4c0.5-0.4,1.1,0.3,0.7,0.8l-18,17.4
				c-0.3,0.3-0.2,0.7,0.2,0.8l13.1,3.8c0.6,0.2,0.5,0.9-0.1,1l-12.8,0.7c-0.4,0-0.6,0.5-0.4,0.8l16.6,17.7c0.4,0.5-0.2,1.1-0.7,0.7
				l-21-16.6c-0.3-0.3-0.8-0.1-0.9,0.3l-2.4,20c-0.1,0.6-1,0.6-1,0l-1.6-21.2c0-0.4-0.4-0.6-0.8-0.4l-17.2,8.4
				c-0.5,0.3-1.1-0.4-0.6-0.8l12.6-10.3c0.3-0.3,0.2-0.7-0.2-0.8l-14.9-3.7c-0.6-0.1-0.5-1,0.1-1h13.5c0.4,0,0.7-0.5,0.4-0.8
				l-12.1-12.9c-0.4-0.4,0.1-1,0.6-0.8l15.7,7.4c0.3,0.1,0.7,0,0.7-0.3l4.5-21C247.8,62.4,248.6,62.4,248.7,63 M249,57.1
				c-20.8,0-37.7,16.2-37.7,36.1c0,20,16.9,36.1,37.7,36.1s37.7-16.2,37.7-36.1C286.7,73.3,269.8,57.1,249,57.1"/>
			<path fill="#F2B826" d="M308.9,165.8c0-12.5-10.2-22.7-22.7-22.7c-12.5,0-22.7,10.2-22.7,22.7c0,12.5,10.2,22.7,22.7,22.7
				C298.8,188.6,308.9,178.4,308.9,165.8"/>
			<path fill="#F2B826" d="M45.4,180.2c0-12.5-10.2-22.7-22.7-22.7C10.2,157.5,0,167.7,0,180.2c0,12.5,10.2,22.7,22.7,22.7
				C35.3,202.9,45.4,192.8,45.4,180.2"/>
			<path fill="#F05E5D" d="M201.7,235.1c0-12.5-10.2-22.7-22.7-22.7c-12.5,0-22.7,10.2-22.7,22.7c0,12.5,10.2,22.7,22.7,22.7
				C191.5,257.8,201.7,247.6,201.7,235.1"/>
			<path fill="#F05E5D" d="M133.9,34.4c0-12.5-10.2-22.7-22.7-22.7c-12.5,0-22.7,10.2-22.7,22.7c0,12.5,10.2,22.7,22.7,22.7
				C123.7,57.1,133.9,46.9,133.9,34.4"/>
			<path fill="#F98A3C" d="M224.4,162.4c0-12.5-10.2-22.7-22.7-22.7c-12.5,0-22.7,10.2-22.7,22.7c0,12.5,10.2,22.7,22.7,22.7
				C214.2,185.1,224.4,174.9,224.4,162.4"/>
			<path fill="#F2B826" d="M165.4,99.9c0-12.5-10.2-22.7-22.7-22.7c-12.5,0-22.7,10.2-22.7,22.7c0,12.5,10.2,22.7,22.7,22.7
				C155.3,122.6,165.4,112.5,165.4,99.9"/>
			<path fill="#A7C38D" d="M224.4,34.4c0-12.5-10.2-22.7-22.7-22.7c-12.5,0-22.7,10.2-22.7,22.7c0,12.5,10.2,22.7,22.7,22.7
				C214.2,57.1,224.4,46.9,224.4,34.4"/>
			<path fill="#A7C38D" d="M100.7,132c0-12.5-10.2-22.7-22.7-22.7c-12.5,0-22.7,10.2-22.7,22.7c0,12.5,10.2,22.7,22.7,22.7
				C90.5,154.7,100.7,144.5,100.7,132"/>
			<path fill="#077797" d="M124.6,216.5l-2.3-14.9c0-0.2-0.3-0.3-0.5-0.2l-12.8,8.4c-0.3,0.2-0.7-0.2-0.4-0.5l11.3-10.9
				c0.2-0.2,0.1-0.4-0.1-0.5l-8.2-2.4c-0.3-0.1-0.3-0.6,0.1-0.6l8-0.5c0.3,0,0.4-0.3,0.2-0.5l-10.4-11.1c-0.3-0.3,0.1-0.7,0.5-0.4
				l13.2,10.4c0.2,0.2,0.5,0,0.5-0.2l1.5-12.6c0-0.4,0.6-0.4,0.7,0l1,13.3c0,0.2,0.3,0.4,0.5,0.3l10.8-5.3c0.3-0.2,0.7,0.3,0.4,0.5
				l-7.9,6.5c-0.2,0.2-0.1,0.5,0.1,0.5l9.4,2.3c0.4,0.1,0.3,0.6-0.1,0.6h-8.5c-0.3,0-0.4,0.3-0.2,0.5l7.6,8.1
				c0.2,0.3-0.1,0.6-0.4,0.5l-9.9-4.6c-0.2-0.1-0.4,0-0.5,0.2l-2.8,13.2C125.2,216.9,124.6,216.8,124.6,216.5 M124.4,220.2
				c13.1,0,23.7-10.2,23.7-22.7c0-12.5-10.6-22.7-23.7-22.7s-23.7,10.2-23.7,22.7C100.7,210,111.3,220.2,124.4,220.2"/>
		</g>
		<path fill="#F98A3C" d="M9.8,62.5c0,12.5,10.2,22.7,22.7,22.7c12.5,0,22.7-10.2,22.7-22.7c0-12.5-10.2-22.7-22.7-22.7
			C20,39.8,9.8,50,9.8,62.5"/>
		<path fill="#F2B826" d="M505.9,97.7c0-12.5-10.2-22.7-22.7-22.7c-12.5,0-22.7,10.2-22.7,22.7c0,12.5,10.2,22.7,22.7,22.7
			C495.7,120.4,505.9,110.3,505.9,97.7"/>
	</g>
	<path fill="#F05E5D" d="M513.1,274.1c0-12.5-10.2-22.7-22.7-22.7c-12.5,0-22.7,10.2-22.7,22.7c0,12.5,10.2,22.7,22.7,22.7
		C502.9,296.8,513.1,286.6,513.1,274.1"/>
</g>
</svg>
