<?xml version="1.0" encoding="utf-8"?>
<!-- Generator: Adobe Illustrator 22.0.1, SVG Export Plug-In . SVG Version: 6.00 Build 0)  -->
<svg version="1.1" id="Layer_1" xmlns="http://www.w3.org/2000/svg" xmlns:xlink="http://www.w3.org/1999/xlink" x="0px" y="0px"
	 viewBox="0 0 166 168.1" enable-background="new 0 0 166 168.1" xml:space="preserve">
<g>
	<path fill="#F2B826" d="M33.9,25.8c0,0,16.1-27.8,46.3-19.7s27.4,32.6,27.4,32.6s0.1,19.6-16.4,31.4c0,0-8,9.6,8.2,14.9
		c16.2,5.3,46.5,6.2,60.4-0.6s1,37.7-4.5,47.9c-5.5,10.2-26.5,47.1-89.8,32.5C2.2,150.1,5.2,104.5,5.2,104.5S5.9,80.1,32,70.7
		c0,0,13.6-2.9,3.1-19.1L33.9,25.8z"/>
	<g>
		<path fill="#F98A3C" d="M35.6,25c0,0-13.4,5.4-29.6,0.5c0,0-6.3,6,1.8,14s28.2,13,28.2,13s7.2-6.1,5.4-13.5
			C39.5,31.6,37.4,32.7,35.6,25z"/>
		
			<ellipse transform="matrix(0.2397 -0.9708 0.9708 0.2397 17.4259 76.6489)" fill="#FFFFFF" cx="57.7" cy="27.2" rx="9.6" ry="6.7"/>
		
			<ellipse transform="matrix(0.2397 -0.9708 0.9708 0.2397 16.5088 74.1593)" fill="#474F62" cx="55.6" cy="26.5" rx="6.1" ry="4.6"/>
	</g>
</g>
</svg>
