<?xml version="1.0" encoding="utf-8"?>
<!-- Generator: Adobe Illustrator 22.0.1, SVG Export Plug-In . SVG Version: 6.00 Build 0)  -->
<svg version="1.1" id="Layer_1" xmlns="http://www.w3.org/2000/svg" xmlns:xlink="http://www.w3.org/1999/xlink" x="0px" y="0px"
	 viewBox="0 0 277.8 198" enable-background="new 0 0 277.8 198" xml:space="preserve">
<g>
	<g>
		<path fill="#FFFFFF" d="M182.4,99.1c4.5-5.7,13.1-7.5,19.4-6.4c25.9,4.3,27.1,14.8,22.2,23.1c-0.9,1.5-4.1,5.6-6.2,7
			c-0.2,0.1,2.1-2.1,2.5-3.9c1.6-6,0.9-12.9-3.5-15.4c-11.3-6.6-24.1-8.5-26.1-7.9C189.7,95.8,180.2,101.8,182.4,99.1z"/>
		<path fill="#FFFFFF" d="M237.7,126.4c-1.6,0.1-1.5,0.6,0.6,0.5c12-0.3,20.1,1.3,21.8,4.8c2.6,5.4,4.6,20.3,2.9,24
			c-2.2,4.7-7.8,9.6-16.4,10.6c-4.9,0.5-8-1-8.1-0.3c-0.1,0.5,3.1,1.5,8.1,2.4c10.5,1.8,17.7,1.2,21.9-8.8c4.5-10.8,5-31.4-3-36
			C257.9,119.3,245.6,125.8,237.7,126.4z"/>
		<path fill="#FFFFFF" d="M209.8,160.8c6.6,4.2,8,14,1.4,16.9c-5.5,2.4-22.8,2.3-37.4-2.2c-5.3-1.6-7.5-4.5-4.4-4.2
			c7,0.8,26.9,5.3,35.6,1c6.4-3.2,3.3-9.1,2.8-10.3C207,160.3,208.8,160.2,209.8,160.8z"/>
		<path fill="#F6871F" d="M159.2,100.7c-9.4-2.8-40.5-4.9-42.2-4.9c-1.5,0-1.1-5.6,3.9-9.6c4.1-3.4,18.9-6.1,26.5-6.4
			c10.3-0.4,19.1,6.1,14.3,20.4C161.3,101.1,160.4,101.1,159.2,100.7z"/>
		<g>
			<path fill="#231815" d="M162.8,90.6c0.2,0,0.1-0.9,0-1.8c-0.6-2.9-3.9-7.6-9.7-9.6c-5.5-1.8-12.1-1.4-21.9,1.7
				c-5,1.5-8.7,3.4-8.4,4c0.2,0.6,1.9-0.7,9.5-2.3c7.5-1.5,15.3-2.1,20.9-0.3c4.4,1.4,7.1,3.7,8.7,6.3
				C162.2,89.1,162.6,90.6,162.8,90.6z"/>
		</g>
		<path fill="#F6871F" d="M215.9,125.1c3.5-3.5,7.9-10,4.3-17c-4.9-9.2-21.2-15.7-31.5-12.3c-1,0.3-7.3,2.4-12,9.7
			c-2.3,3.6-7.4,49.6-11.1,61.9c-0.8,2.5,2.9,5.7,6.4,6.6c3.4,0.8,28.2,4,36.5-2.5c3.8-3,3.3-6.1,0.9-10
			C208.9,143.9,215.9,125.1,215.9,125.1z"/>
		<path fill="#F6871F" d="M106.4,162c0.7,2.1,1.3,4.2,3.5,6.4c0.9,0.8,5.2,3.1,6,4.8c2.1,4.5,5.4,10.3,12,12.6
			c11.7,4.2,22.9,3.3,25,1.4c2-1.7,0.6-6.4-3.8-14.8c-2.5-4.8-3.3-6.5-3.3-6.7L106.4,162z"/>
		<path fill="#F79133" d="M148.7,170.9c29.3-0.3,46.9-10.8,61.8-9c6.8,0.9,23.8,3.6,31.5,4.7c8.3,1.1,22.7-4.9,22.9-20.3
			c0.3-17.8-9.6-22.2-22.3-20.2c-12.7,2-25.9-1.2-28.4-2c-15.1-4.8-20.4-13.7-41.5-23.7c-13.6-6.4-37.1-11.3-56.8-7.4
			c-11.7,2.4-22.5,7.5-30.9,12.8c-7.2,4.6-13.1,10.4-16.3,15.2c-0.8,1.1-1.7,3.2-1.8,4.3c0,0.3-0.1,0.6,0,0.8c0.1,0.2,0,0.4-0.2,0.5
			c-0.6,0.3-0.8,0.7-0.8,1.7c0.4,9.4,9.1,21.1,21.8,28.2C110,169.1,133.4,171.1,148.7,170.9z"/>
		<path fill="#FFFFFF" d="M93.4,101.5c1.8,0.3,4.6,1.3,6.3,2.4c17.3,11,28.2,38.2-8.5,54.2c-0.7,0.3-0.4,0.7,1.2,1.5
			c2.8,1.4,4.7,2.5,6.9,1.9c18.3-4.9,29.5-18.7,28.7-34.4c-0.8-15.8-12.8-26.3-19.6-29.7c-1.9-0.9-4.1-1.2-5.2-1
			c-2.8,0.5-6.4,2.3-8.3,3.4C93.7,100.5,92.5,101.4,93.4,101.5z"/>
		<path fill="#FFFFFF" d="M157.9,102.2c-1.4,2.9-3.1,6.1-4.9,10.1c-4.8,10.6-13.1,9-12.1,16.3c1.1,8.6,7.2,29.8,7.3,42.3
			c0,0.6,13.5-0.3,17.2-1.1c0.8-0.2,0.9-0.6,1-1.9c0.6-6,2.7-22.8,4.8-32.6c4.9-23.2,8.3-31.4,6.9-32.1c-3.4-1.8-8.2-4.2-15-6.5
			C161.2,96,159.2,99.6,157.9,102.2z"/>
		<path fill="#FFFFFF" d="M213.9,127.7c-3.6,10.3-5.5,22-5,30c0.2,3.3,0.6,4.2,1.4,4.3c5.8,1.2,12.5,2.3,16.5,2.5
			c1.3,0.1,1.2-7.5,2.6-19.7c0.5-4.6,2.6-13.6,3.6-17.3c0.2-0.7-0.1-1-0.9-1.1c-3.7-0.2-8.4-0.4-15.9-1.8
			C215.5,124.5,214.7,125.4,213.9,127.7z"/>
		<path fill="#221814" d="M91.6,117c-0.2,3.5,2.5,6.6,5.9,6.7c3.4,0.2,6.3-2.6,6.5-6.1c0.2-3.5-2.5-6.6-5.9-6.7
			C94.6,110.7,91.7,113.4,91.6,117z"/>
		<path fill="#FFFFFF" d="M93.9,116c-0.1,1.2,0.9,2.2,2,2.2c1.2,0.1,2.2-0.9,2.2-2c0.1-1.2-0.9-2.2-2-2.2
			C95,113.9,94,114.8,93.9,116z"/>
		<path fill="#FAA85F" d="M140.2,131.8c4.6-2.4,10.7-4.9,19.5-4.2c5.5,0.4,12,12.1-2.1,29.9c-6.8,8.6-14,8.4-19.5,3.6
			c-3.6-3.1-8.6-10-8.6-14.8C129.4,140.5,132.8,135.6,140.2,131.8z"/>
		<path fill="#221814" d="M243.6,126.1c-0.1,0.3,1.1,0.9,2.8,1.8c4.7,2.5,16.3,10.7,14.4,24.1c-1.4,9.9-11.3,13-14.9,13.7
			c-2.4,0.4-4,0.5-4.1,0.7c0,0.3,1.4,0.6,3.4,0.7c13.7,1.2,18.7-4.6,20.7-15.8c1.8-10-0.4-18.5-4.6-22.6
			C256.7,124.2,243.7,125.3,243.6,126.1z"/>
		<path fill="#221814" d="M220.3,119.3c0.8-1.4,5.8-10.8-1.3-16.2c-10.2-7.8-22.8-9.6-29.3-8c-2.4,0.6-5.3,2.3-5,2.5
			c0.2,0.2,2.8-1.2,6.3-1.5c6.4-0.5,19.2,2.8,27.3,10.5c3.7,3.5,2.3,9.7,1.7,12.2C219.7,120.3,219.5,120.7,220.3,119.3z"/>
		<path fill="#221814" d="M209.5,161.4c-0.3,0,0.1,1.6,0.3,2.6c0.9,4.3-1.1,6.9-5.8,8.5c-6.9,2.3-21.2,2.5-26,2.1
			c-3.4-0.3-3.7-0.1-0.2,0.5c3.5,0.6,24.4,2.1,31.4-1.7c5-2.7,3-7.4,2.4-8.9C210.9,162.8,209.9,161.4,209.5,161.4z"/>
		<path fill="#221814" d="M154.5,127.4c3.9-0.8,10.5-1,12.7,3.5c4.2,8.3-4.3,27.8-16.5,32.5c-4,1.6-7.4,1-7.4,0.3c0-0.6,4-0.7,5-1.3
			c13.9-8.6,17.3-23.9,14.8-30.3c-1-2.6-6.7-3.5-8.3-3.6C152.3,128.4,152.6,127.8,154.5,127.4z"/>
	</g>
	<path fill="#221814" d="M151.7,177.9c-0.1,0.1,0,0.5,0.3,1.5c0.2,1,1.5,5.5,0.4,6.7c-1.6,1.7-7.7,2.5-15.5,1.1
		c-12.4-2.2-15.7-6.2-16.6-7.2c-0.9-0.9-0.7-0.2-0.3,0.5c0.4,0.7,3.9,6.3,15.4,8.9c10,2.2,17.6,1.1,18.9-2.5
		c0.9-2.4-1.2-6.7-1.7-7.6C152.1,178.3,151.8,177.9,151.7,177.9z"/>
	<path opacity="0.3" fill="#A31D21" d="M76,129.1c0.9,0,1.9,0,2.7-0.1c0.8-0.1,1.3-0.8,1.3-1.5c-0.1-0.8-0.8-1.1-1.5-1.1
		c-3.2,0.3-7.1,0.2-10.1-0.4c-0.8-0.2-1.3-0.2-1.4,0.2c-0.1,0.5,0.4,1.2,1,1.4C70.4,128.6,72.7,128.9,76,129.1z"/>
</g>
<g>
	<path opacity="0.8" fill="#FFFFFF" d="M39.4,118.1c-1.8,0.2-3.5-1.1-3.7-2.9c-0.2-1.8,1.1-3.5,2.9-3.7c1.8-0.2,3.5,1.1,3.6,2.9
		C42.5,116.3,41.2,117.9,39.4,118.1z"/>
	<path opacity="0.8" fill="#FFFFFF" d="M32.3,107.7c-1.8,0.2-3.4-1.1-3.6-2.9c-0.2-1.8,1.1-3.5,2.9-3.7c1.8-0.2,3.5,1.1,3.7,2.9
		C35.4,105.9,34.1,107.5,32.3,107.7z"/>
	<path opacity="0.8" fill="#FFFFFF" d="M30.4,94.1c-1.2,0.1-2.3-0.7-2.4-1.9c-0.1-1.2,0.7-2.3,1.9-2.4c1.2-0.1,2.3,0.7,2.4,1.9
		C32.5,92.9,31.6,94,30.4,94.1z"/>
	<path opacity="0.8" fill="#FFFFFF" d="M40.2,87.4c-1.8,0.2-3.5-1.1-3.7-2.9c-0.2-1.8,1.1-3.5,2.9-3.6c1.8-0.2,3.5,1.1,3.7,2.9
		C43.3,85.6,42,87.2,40.2,87.4z"/>
	<path opacity="0.8" fill="#FFFFFF" d="M48.9,52.5c-1.8,0.2-3.5-1.1-3.7-2.9c-0.2-1.8,1.1-3.4,2.9-3.6c1.8-0.2,3.5,1.1,3.7,2.9
		C52,50.7,50.7,52.3,48.9,52.5z"/>
	<path opacity="0.8" fill="#FFFFFF" d="M41.3,57.5c-0.8,0-1.4-0.6-1.5-1.4c0-0.8,0.6-1.5,1.4-1.5c0.8,0,1.4,0.6,1.5,1.4
		C42.7,56.8,42.1,57.4,41.3,57.5z"/>
	<path opacity="0.8" fill="#FFFFFF" d="M26.4,44.8c-1.8,0-3.3-1.4-3.4-3.2c0-1.8,1.4-3.3,3.2-3.4c1.8,0,3.3,1.4,3.4,3.2
		C29.6,43.3,28.2,44.8,26.4,44.8z"/>
	<path opacity="0.8" fill="#FFFFFF" d="M39.9,42.6c-1.2,0-2.1-0.9-2.2-2.1c0-1.2,0.9-2.1,2.1-2.2c1.2,0,2.1,0.9,2.2,2.1
		C41.9,41.6,41,42.5,39.9,42.6z"/>
	<path opacity="0.8" fill="#FFFFFF" d="M33.4,14.4c-1.2,0-2.1-0.9-2.2-2.1c0-1.2,0.9-2.1,2.1-2.2c1.2,0,2.1,0.9,2.2,2.1
		C35.5,13.4,34.6,14.4,33.4,14.4z"/>
	<path opacity="0.8" fill="#FFFFFF" d="M34.9,22.5c-1.2,0-2.1-0.9-2.2-2.1c0-1.2,0.9-2.1,2.1-2.2c1.2,0,2.1,0.9,2.2,2.1
		C37,21.5,36.1,22.5,34.9,22.5z"/>
	<path opacity="0.8" fill="#FFFFFF" d="M11.1,12c-1.2,0-2.1-0.9-2.1-2.1c0-1.2,0.9-2.1,2.1-2.2c1.2,0,2.1,0.9,2.2,2.1
		C13.1,11,12.2,12,11.1,12z"/>
	<path opacity="0.8" fill="#FFFFFF" d="M51.8,39.1c-1.2,0-2.1-0.9-2.2-2.1c0-1.2,0.9-2.1,2.1-2.2c1.2,0,2.1,0.9,2.2,2.1
		C53.9,38.1,52.9,39.1,51.8,39.1z"/>
	<path opacity="0.8" fill="#FFFFFF" d="M49.7,17.8c-1.2,0-2.1-0.9-2.2-2.1c0-1.2,0.9-2.1,2.1-2.1c1.2,0,2.1,0.9,2.2,2.1
		C51.8,16.9,50.9,17.8,49.7,17.8z"/>
	<path opacity="0.8" fill="#FFFFFF" d="M37.6,129.8c-1.2,0-2.1-0.9-2.2-2.1c0-1.2,0.9-2.1,2.1-2.2c1.2,0,2.1,0.9,2.2,2.1
		C39.7,128.8,38.8,129.8,37.6,129.8z"/>
	<path opacity="0.8" fill="#FFFFFF" d="M38.7,70.5c-1.8,0.2-3.5-1.1-3.7-2.9c-0.2-1.8,1.1-3.5,2.9-3.7c1.8-0.2,3.5,1.1,3.6,2.9
		C41.8,68.7,40.5,70.3,38.7,70.5z"/>
</g>
</svg>
