<?xml version="1.0" encoding="utf-8"?>
<!-- Generator: Adobe Illustrator 22.0.1, SVG Export Plug-In . SVG Version: 6.00 Build 0)  -->
<svg version="1.1" id="Isolation_Mode" xmlns="http://www.w3.org/2000/svg" xmlns:xlink="http://www.w3.org/1999/xlink" x="0px"
	 y="0px" viewBox="0 0 451.1 255.2" enable-background="new 0 0 451.1 255.2" xml:space="preserve">
<g>
	<g>
		<path fill="#F15D5D" d="M69,93.6c0.6,0.4,1.1,0.9,1.4,1.4c0.3,0.6,0.2,1.3-0.2,2.1l-9.4,13.4c-0.4,0.6-0.8,1-1.3,1.1
			c-0.5,0.1-1-0.1-1.7-0.5c-1.8-1.4-3.8-2.4-6-3.2c-2.2-0.7-4.5-1.1-7-1.1c-3,0-5.8,0.6-8.4,1.7c-2.6,1.2-4.8,2.7-6.6,4.7
			s-3.3,4.3-4.3,7c-1,2.7-1.6,5.5-1.6,8.6c0,3,0.5,5.9,1.6,8.5c1,2.7,2.5,5,4.3,7s4.1,3.6,6.6,4.7c2.6,1.2,5.4,1.7,8.4,1.7
			c2.5,0,4.8-0.4,7-1.1c2.2-0.8,4.2-1.8,6.1-3.2c0.7-0.4,1.2-0.6,1.7-0.5c0.4,0.1,0.9,0.4,1.3,1l9.5,13.7c0.4,0.8,0.5,1.5,0.2,2.1
			c-0.3,0.6-0.8,1-1.4,1.4c-3.5,2.3-7.2,4.1-11.3,5.4c-4,1.3-8.3,1.9-12.7,1.9c-3.9,0-7.7-0.5-11.3-1.5c-3.6-1-7-2.4-10.2-4.3
			s-6-4.1-8.6-6.7c-2.6-2.6-4.8-5.4-6.7-8.6c-1.9-3.1-3.3-6.5-4.3-10.1c-1-3.6-1.5-7.4-1.5-11.3c0-3.9,0.5-7.7,1.5-11.3
			c1-3.6,2.4-7,4.3-10.2c1.9-3.2,4.1-6.1,6.7-8.7c2.6-2.6,5.4-4.8,8.6-6.7s6.5-3.3,10.2-4.3c3.6-1,7.4-1.5,11.3-1.5
			c4.5,0,8.7,0.6,12.6,1.9C61.8,89.5,65.5,91.3,69,93.6z"/>
		<path fill="#F15D5D" d="M108.1,89.8c0-0.2,0.2-0.5,0.4-0.7c0.2-0.3,0.5-0.5,0.8-0.7c0.3-0.2,0.6-0.4,0.9-0.5
			c0.3-0.1,0.6-0.2,0.9-0.2h14.3c0.6,0,1.2,0.2,1.6,0.6c0.4,0.4,0.8,0.7,1,1l1.4,3.2l29.2,75.4c0.3,0.7,0.2,1.3-0.2,1.8
			c-0.4,0.5-1.1,0.7-2.1,0.7h-16c-0.9,0-1.5-0.2-2-0.5c-0.5-0.3-0.8-0.8-1.1-1.6c-0.7-1.9-1.5-3.8-2.2-5.7c-0.7-1.9-1.4-3.8-2.1-5.7
			h-29.6c-0.7,1.9-1.4,3.8-2.1,5.7c-0.7,1.9-1.4,3.8-2.1,5.7c-0.5,1.4-1.4,2.1-2.8,2.1H79.8c-0.7,0-1.3-0.2-1.8-0.6
			c-0.5-0.4-0.5-0.9-0.3-1.7L108.1,89.8z M118.2,113.6c-0.7,1.9-1.4,3.9-2.1,6.1c-0.7,2.2-1.4,4.4-2.1,6.6s-1.4,4.4-2.1,6.6
			c-0.7,2.2-1.4,4.2-2.1,6.1h17.1L118.2,113.6z"/>
		<path fill="#F15D5D" d="M169.8,90.2c0-0.8,0.2-1.4,0.6-1.9c0.4-0.5,1-0.7,1.8-0.7h36c3.8,0,7.4,0.7,10.7,2.1
			c3.3,1.4,6.3,3.4,8.7,5.8c2.5,2.5,4.4,5.3,5.9,8.6c1.4,3.3,2.1,6.8,2.1,10.5c0,2.5-0.3,4.9-1,7.2c-0.7,2.3-1.6,4.4-2.9,6.4
			c-1.2,2-2.7,3.8-4.4,5.4c-1.7,1.6-3.5,3-5.5,4.1l14.3,27c0.3,0.5,0.6,1.1,1,1.8c0.4,0.7,0.6,1.3,0.6,1.8c0,0.6-0.2,1-0.6,1.4
			c-0.4,0.3-0.9,0.5-1.6,0.5h-19.1c-0.6,0-1.2-0.2-1.7-0.6c-0.5-0.4-0.8-0.9-1-1.5l-13.5-25.5h-9v25.1c0,1.6-0.9,2.4-2.6,2.4h-16.5
			c-0.7,0-1.3-0.2-1.8-0.6s-0.7-1-0.7-1.8V90.2z M213.4,114.9c0-1.1-0.2-2.2-0.6-3.3c-0.4-1.1-1-2.1-1.7-3.1
			c-0.7-0.9-1.6-1.7-2.7-2.3c-1-0.6-2.2-1-3.5-1.2c-1-0.1-2-0.1-2.9-0.2c-0.9-0.1-1.9-0.1-3-0.1h-7.7v20.4h10.2c0.7,0,1.3,0,1.8-0.1
			c0.5,0,1.1-0.1,1.7-0.2c1.3-0.1,2.5-0.5,3.5-1.1c1-0.6,1.9-1.4,2.6-2.3c0.7-0.9,1.2-1.9,1.6-3.1
			C213.2,117.3,213.4,116.1,213.4,114.9z"/>
		<path fill="#F15D5D" d="M248.2,90.1c0-0.7,0.2-1.2,0.6-1.7c0.4-0.5,1-0.7,1.8-0.7h16.4c0.6,0,1.2,0.2,1.8,0.7
			c0.6,0.4,0.9,1,0.9,1.8v77.8c0,1.6-0.9,2.5-2.7,2.5h-16.4c-1.6,0-2.5-0.8-2.5-2.5V90.1z"/>
		<path fill="#F15D5D" d="M287.9,90.1c0-0.7,0.2-1.2,0.6-1.7c0.4-0.5,1-0.7,1.8-0.7h18.2c0.5,0,1.1,0.1,1.6,0.4
			c0.6,0.3,1,0.7,1.4,1.3c4.7,7.6,9.4,15.1,14,22.5c4.6,7.4,9.3,14.9,14.1,22.5V89.7c0.1-0.7,0.4-1.2,0.9-1.6s1-0.6,1.6-0.6h15.9
			c0.8,0,1.4,0.2,1.9,0.6c0.5,0.4,0.8,1,0.8,1.8v78.1c0,0.7-0.2,1.3-0.7,1.6c-0.4,0.4-1.1,0.5-1.8,0.5h-17.8c-0.5,0-0.9-0.2-1.3-0.5
			s-0.8-0.8-1.2-1.3c-4.9-8.2-9.8-16.2-14.6-24.2c-4.8-8-9.7-16.1-14.7-24.2v47.8c0,0.8-0.2,1.4-0.6,1.8c-0.4,0.4-1,0.6-2,0.6h-15.8
			c-0.9,0-1.5-0.2-1.9-0.7c-0.4-0.5-0.6-1-0.6-1.7V90.1z"/>
		<path fill="#F15D5D" d="M431.2,111c-1.9-1.3-3.9-2.4-6.1-3.1c-2.2-0.7-4.5-1.1-6.9-1.1c-3.1,0-5.9,0.6-8.5,1.8
			c-2.6,1.2-4.8,2.8-6.6,4.8s-3.3,4.4-4.3,7c-1,2.7-1.6,5.6-1.6,8.6c0,3,0.5,5.9,1.6,8.6c1,2.7,2.5,5,4.3,7s4,3.6,6.6,4.7
			c2.6,1.2,5.4,1.7,8.5,1.7c1.3,0,2.6-0.1,3.9-0.3c1.3-0.2,2.6-0.4,4.1-0.7v-14.6c0-0.7,0.2-1.3,0.6-1.8c0.4-0.5,1-0.7,1.8-0.7h15.1
			c0.6,0,1.2,0.2,1.8,0.7c0.6,0.4,0.9,1,0.9,1.8v27c0,1-0.5,1.8-1.6,2.5c-1.7,1.2-3.7,2.2-5.8,3.1c-2.1,0.9-4.3,1.6-6.6,2.1
			c-2.3,0.6-4.6,1-7,1.3c-2.4,0.3-4.7,0.4-6.9,0.4c-3.9,0-7.7-0.5-11.3-1.5c-3.6-1-7-2.4-10.2-4.3c-3.2-1.9-6-4.1-8.6-6.7
			c-2.6-2.6-4.8-5.4-6.7-8.6c-1.9-3.1-3.3-6.5-4.3-10.1c-1-3.6-1.5-7.4-1.5-11.3c0-3.9,0.5-7.7,1.5-11.3c1-3.6,2.4-7,4.3-10.2
			c1.9-3.2,4.1-6.1,6.7-8.7c2.6-2.6,5.4-4.8,8.6-6.7c3.2-1.8,6.5-3.3,10.2-4.3c3.6-1,7.4-1.5,11.3-1.5c4.5,0,8.7,0.6,12.6,1.9
			c4,1.2,7.7,3,11.2,5.4c0.6,0.4,1.1,0.9,1.4,1.5s0.3,1.3-0.2,2.1l-9,13c-0.5,0.6-1,1-1.4,1.2C432.7,111.6,432,111.5,431.2,111z"/>
	</g>
	<g>
		<g>
			<path fill="#007A9A" d="M165.9,230.5c0.5,0.4,1.1,1,1.9,1.7c0.8,0.7,1.7,1.4,2.7,2.1c1.5,1,3,1.8,4.5,2.4c1.5,0.6,3,0.8,4.7,0.8
				c1.5,0,2.8-0.2,3.8-0.5s1.8-0.8,2.4-1.4c0.6-0.6,1-1.2,1.3-2c0.3-0.7,0.4-1.5,0.4-2.3c0-0.9-0.3-1.7-1-2.5
				c-0.7-0.7-1.5-1.4-2.6-1.9c-1-0.6-2.1-1-3.2-1.4c-1.1-0.4-2-0.7-2.8-1c-3.5-1.2-6.7-2.6-9.3-4s-4.9-3-6.7-4.8s-3.1-3.7-4-5.8
				c-0.9-2.1-1.3-4.5-1.3-7.1c0-2.7,0.6-5.2,1.7-7.5c1.1-2.2,2.7-4.2,4.7-5.8c2.1-1.6,4.5-2.8,7.4-3.7c2.9-0.9,6.1-1.3,9.7-1.3
				c2.7,0,5.3,0.3,7.7,0.9s4.9,1.6,7.3,2.9c1,0.6,2,1.2,2.9,1.8c0.9,0.6,1.7,1.2,2.4,1.8s1.2,1.2,1.6,1.7c0.4,0.5,0.6,1,0.6,1.4
				c0,0.4-0.1,0.7-0.3,1.1s-0.5,0.7-0.9,1.1l-6.8,7.2c-0.5,0.5-1,0.8-1.5,0.8c-0.4,0-0.8-0.1-1.1-0.4c-0.3-0.2-0.7-0.5-1.1-0.9
				l-0.4-0.4c-0.6-0.5-1.2-1-2-1.6c-0.7-0.5-1.5-1-2.3-1.4c-0.8-0.4-1.7-0.8-2.6-1.1s-1.8-0.4-2.8-0.4c-1,0-1.9,0.1-2.8,0.2
				c-0.9,0.2-1.6,0.4-2.3,0.8c-0.7,0.4-1.2,0.8-1.6,1.4c-0.4,0.6-0.6,1.3-0.6,2.1s0.2,1.5,0.6,2.2c0.4,0.6,1,1.2,1.9,1.7
				c0.8,0.5,1.9,1,3.1,1.5c1.2,0.5,2.7,1,4.3,1.5c3.1,1,6,2.1,8.7,3.3c2.6,1.1,4.9,2.5,6.9,4c1.9,1.6,3.4,3.4,4.5,5.6
				c1.1,2.2,1.6,4.8,1.6,7.9c0,3.3-0.7,6.2-2,8.9c-1.3,2.6-3.2,4.9-5.5,6.8s-5.1,3.3-8.2,4.3c-3.1,1-6.5,1.5-10.1,1.5
				c-3.4,0-6.7-0.6-10-1.8c-3.3-1.2-6.3-2.8-9.2-4.9c-1.2-0.9-2.2-1.7-3-2.5s-1.5-1.5-1.9-2l-0.1-0.1c0-0.1-0.1-0.1-0.1-0.1
				c0,0-0.1,0-0.1-0.1c0-0.1-0.1-0.1-0.1-0.1c0,0-0.1,0-0.1-0.1c-0.7-0.7-1-1.3-1-1.8c0-0.5,0.3-1.1,1-1.7l7.7-7.3
				c0.6-0.4,1.1-0.7,1.5-0.7c0.3,0,0.5,0.1,0.8,0.3S165.5,230.1,165.9,230.5z"/>
			<path fill="#007A9A" d="M212.2,187.8c0-0.6,0.2-1.1,0.6-1.4s0.9-0.5,1.5-0.5H262c0.5,0,1,0.2,1.4,0.5c0.4,0.3,0.6,0.8,0.7,1.5v11
				c0,0.5-0.2,1-0.6,1.5c-0.4,0.5-0.9,0.7-1.6,0.7h-15.3v48.6c0,0.5-0.2,1-0.6,1.4s-0.9,0.6-1.5,0.6h-13c-0.5,0-1-0.2-1.4-0.6
				c-0.4-0.4-0.7-0.9-0.7-1.5v-48.6h-15.3c-0.6,0-1.1-0.2-1.5-0.6c-0.4-0.4-0.6-0.9-0.6-1.7V187.8z"/>
			<path fill="#007A9A" d="M281.7,187.6c0-0.2,0.1-0.4,0.3-0.6c0.2-0.2,0.4-0.4,0.6-0.6c0.2-0.2,0.5-0.3,0.8-0.4
				c0.3-0.1,0.5-0.2,0.8-0.2h11.4c0.5,0,0.9,0.2,1.3,0.5c0.4,0.3,0.6,0.6,0.8,0.8l1.1,2.5l23.3,60.1c0.2,0.6,0.2,1.1-0.1,1.4
				c-0.3,0.4-0.9,0.6-1.7,0.6h-12.7c-0.7,0-1.2-0.1-1.6-0.4c-0.4-0.3-0.7-0.7-0.9-1.3c-0.6-1.5-1.2-3-1.7-4.5
				c-0.6-1.5-1.1-3-1.7-4.5H278c-0.6,1.5-1.1,3-1.7,4.5c-0.6,1.5-1.1,3-1.7,4.5c-0.4,1.1-1.1,1.6-2.3,1.6h-13.1
				c-0.6,0-1-0.1-1.4-0.4c-0.4-0.3-0.4-0.7-0.2-1.3L281.7,187.6z M289.8,206.6c-0.6,1.5-1.1,3.1-1.7,4.9s-1.1,3.5-1.7,5.3
				c-0.6,1.8-1.1,3.5-1.7,5.3c-0.6,1.7-1.1,3.3-1.7,4.9h13.6L289.8,206.6z"/>
			<path fill="#007A9A" d="M330.9,187.9c0-0.6,0.2-1.1,0.5-1.5c0.3-0.4,0.8-0.6,1.5-0.6h28.7c3,0,5.9,0.6,8.6,1.7
				c2.7,1.1,5,2.7,7,4.6c2,2,3.5,4.2,4.7,6.9c1.1,2.6,1.7,5.4,1.7,8.4c0,2-0.3,3.9-0.8,5.7s-1.3,3.5-2.3,5.1c-1,1.6-2.1,3-3.5,4.3
				s-2.8,2.4-4.4,3.3l11.4,21.5c0.2,0.4,0.5,0.9,0.8,1.5s0.5,1,0.5,1.5c0,0.5-0.2,0.8-0.5,1.1c-0.3,0.3-0.7,0.4-1.3,0.4h-15.2
				c-0.5,0-1-0.1-1.4-0.4s-0.7-0.7-0.8-1.2l-10.8-20.3H348v20c0,1.3-0.7,1.9-2,1.9h-13.2c-0.6,0-1.1-0.2-1.4-0.5
				c-0.4-0.3-0.5-0.8-0.5-1.4V187.9z M365.6,207.6c0-0.9-0.2-1.8-0.5-2.7c-0.3-0.9-0.8-1.7-1.4-2.4s-1.3-1.4-2.1-1.9
				c-0.8-0.5-1.7-0.8-2.8-1c-0.8-0.1-1.6-0.1-2.3-0.2c-0.7,0-1.5-0.1-2.4-0.1H348v16.3h8.2c0.5,0,1,0,1.4,0s0.9-0.1,1.4-0.1
				c1-0.1,2-0.4,2.8-0.9c0.8-0.5,1.5-1.1,2.1-1.8c0.6-0.7,1-1.5,1.3-2.4S365.6,208.6,365.6,207.6z"/>
			<path fill="#007A9A" d="M389.6,187.8c0-0.6,0.2-1.1,0.6-1.4s0.9-0.5,1.5-0.5h47.7c0.5,0,1,0.2,1.4,0.5c0.4,0.3,0.6,0.8,0.7,1.5
				v11c0,0.5-0.2,1-0.6,1.5c-0.4,0.5-0.9,0.7-1.6,0.7h-15.3v48.6c0,0.5-0.2,1-0.6,1.4s-0.9,0.6-1.5,0.6h-13c-0.5,0-1-0.2-1.4-0.6
				c-0.4-0.4-0.7-0.9-0.7-1.5v-48.6h-15.3c-0.6,0-1.1-0.2-1.5-0.6c-0.4-0.4-0.6-0.9-0.6-1.7V187.8z"/>
		</g>
	</g>
	<g>
		<path fill="#A7C38D" d="M17,181.9c0-0.3,0.1-0.5,0.2-0.7c0.2-0.2,0.3-0.2,0.6-0.3h19.4c0.3,0,0.5,0.1,0.7,0.3
			c0.2,0.2,0.2,0.4,0.2,0.7v5c0,0.2-0.1,0.4-0.2,0.7c-0.2,0.2-0.4,0.3-0.7,0.3H24.8v6.3h9.1c0.3,0,0.5,0.1,0.6,0.2
			c0.2,0.1,0.3,0.4,0.3,0.7v4.8c0,0.2-0.1,0.4-0.2,0.7c-0.2,0.2-0.4,0.3-0.6,0.3h-9.1v9.3c0,0.6-0.3,0.9-0.9,0.9h-6.2
			c-0.5-0.1-0.7-0.4-0.7-0.9V181.9z"/>
		<path fill="#A7C38D" d="M43.1,181.9c0-0.3,0.1-0.5,0.2-0.7s0.4-0.3,0.7-0.3h13.1c1.4,0,2.7,0.3,3.9,0.8c1.2,0.5,2.3,1.2,3.2,2.1
			c0.9,0.9,1.6,1.9,2.1,3.1c0.5,1.2,0.8,2.5,0.8,3.8c0,0.9-0.1,1.8-0.4,2.6s-0.6,1.6-1,2.3c-0.4,0.7-1,1.4-1.6,2s-1.3,1.1-2,1.5
			l5.2,9.8c0.1,0.2,0.2,0.4,0.4,0.7c0.1,0.3,0.2,0.5,0.2,0.7c0,0.2-0.1,0.4-0.2,0.5S67.3,211,67,211h-6.9c-0.2,0-0.4-0.1-0.6-0.2
			c-0.2-0.1-0.3-0.3-0.4-0.5l-4.9-9.3h-3.3v9.1c0,0.6-0.3,0.9-0.9,0.9h-6c-0.3,0-0.5-0.1-0.6-0.2c-0.2-0.1-0.2-0.4-0.2-0.7V181.9z
			 M58.9,190.9c0-0.4-0.1-0.8-0.2-1.2c-0.1-0.4-0.4-0.8-0.6-1.1c-0.3-0.3-0.6-0.6-1-0.9c-0.4-0.2-0.8-0.4-1.3-0.4
			c-0.4,0-0.7,0-1.1-0.1c-0.3,0-0.7,0-1.1,0h-2.8v7.4h3.7c0.2,0,0.5,0,0.6,0c0.2,0,0.4,0,0.6-0.1c0.5-0.1,0.9-0.2,1.3-0.4
			c0.4-0.2,0.7-0.5,1-0.8c0.3-0.3,0.5-0.7,0.6-1.1C58.9,191.7,58.9,191.3,58.9,190.9z"/>
		<path fill="#A7C38D" d="M70.1,196c0-1.4,0.2-2.8,0.5-4.1c0.4-1.3,0.9-2.6,1.6-3.7c0.7-1.2,1.5-2.2,2.4-3.1s2-1.8,3.1-2.4
			c1.1-0.7,2.4-1.2,3.7-1.6s2.7-0.6,4.1-0.6c1.4,0,2.8,0.2,4.1,0.6s2.6,0.9,3.7,1.6c1.1,0.7,2.2,1.5,3.1,2.4s1.8,2,2.4,3.1
			c0.7,1.2,1.2,2.4,1.6,3.7c0.4,1.3,0.6,2.7,0.6,4.1s-0.2,2.8-0.6,4.1c-0.4,1.3-0.9,2.5-1.6,3.7c-0.7,1.1-1.5,2.2-2.4,3.1
			c-0.9,0.9-2,1.7-3.1,2.4c-1.1,0.7-2.4,1.2-3.7,1.6s-2.7,0.5-4.1,0.5c-1.4,0-2.8-0.2-4.1-0.5s-2.5-0.9-3.7-1.6
			c-1.1-0.7-2.2-1.5-3.1-2.4c-0.9-0.9-1.7-2-2.4-3.1s-1.2-2.4-1.6-3.7C70.3,198.8,70.1,197.4,70.1,196z M78,196
			c0,1.1,0.2,2.2,0.6,3.1c0.4,1,0.9,1.8,1.6,2.5s1.5,1.3,2.4,1.7c0.9,0.4,2,0.6,3.1,0.6s2.1-0.2,3.1-0.6c0.9-0.4,1.7-1,2.4-1.7
			s1.2-1.6,1.6-2.5c0.4-1,0.6-2,0.6-3.1c0-1.1-0.2-2.1-0.6-3.1c-0.4-1-0.9-1.8-1.6-2.6c-0.7-0.7-1.5-1.3-2.4-1.7
			c-0.9-0.4-2-0.6-3.1-0.6s-2.1,0.2-3.1,0.6c-0.9,0.4-1.7,1-2.4,1.7c-0.7,0.7-1.2,1.6-1.6,2.6C78.2,193.8,78,194.9,78,196z"/>
		<path fill="#A7C38D" d="M107.7,181.8c0-0.2,0.1-0.5,0.3-0.6c0.2-0.2,0.4-0.3,0.7-0.3h7c0.5,0,0.8,0.3,1,0.8l5.5,18.4l5.5-18.4
			c0.2-0.5,0.5-0.8,1-0.8h6.9c0.2,0,0.5,0.1,0.7,0.3c0.2,0.2,0.3,0.4,0.3,0.6c0.5,4.8,1,9.5,1.4,14.1c0.5,4.7,1,9.4,1.4,14.1v0.1
			c0,0.5-0.3,0.8-0.9,0.8h-5.7c-0.6,0-0.9-0.3-1-0.9l-1.8-15.6l-4.6,15.7c0,0.1-0.1,0.3-0.3,0.5c-0.2,0.2-0.3,0.3-0.5,0.3h-5.3
			c-0.2,0-0.3-0.1-0.5-0.3c-0.2-0.2-0.3-0.3-0.3-0.5l-4.6-15.7l-1.8,15.6c0,0.6-0.4,0.9-1,0.9h-5.7c-0.6,0-0.9-0.3-0.9-0.9
			L107.7,181.8z"/>
		<path fill="#A7C38D" d="M56.6,220.2c0-0.3,0.1-0.5,0.3-0.6c0.2-0.2,0.4-0.2,0.7-0.2h21.8c0.2,0,0.5,0.1,0.6,0.2
			c0.2,0.1,0.3,0.4,0.3,0.7v5c0,0.2-0.1,0.5-0.3,0.7c-0.2,0.2-0.4,0.3-0.7,0.3h-7v22.2c0,0.2-0.1,0.5-0.3,0.7
			c-0.2,0.2-0.4,0.3-0.7,0.3h-5.9c-0.2,0-0.4-0.1-0.6-0.3c-0.2-0.2-0.3-0.4-0.3-0.7v-22.2h-7c-0.3,0-0.5-0.1-0.7-0.3
			c-0.2-0.2-0.3-0.4-0.3-0.8V220.2z"/>
		<path fill="#A7C38D" d="M85.3,220.2c0-0.2,0.1-0.4,0.3-0.6c0.2-0.2,0.4-0.3,0.6-0.3h6c0.2,0,0.4,0.1,0.6,0.3
			c0.2,0.2,0.3,0.4,0.3,0.6v9.6h10.1v-9.6c0-0.2,0.1-0.5,0.3-0.6s0.4-0.3,0.7-0.3h5.9c0.3,0,0.5,0.1,0.7,0.2
			c0.2,0.1,0.3,0.4,0.3,0.6v28.3c0,0.3-0.1,0.5-0.3,0.7c-0.2,0.1-0.4,0.2-0.7,0.2h-6c-0.3,0-0.5-0.1-0.7-0.2s-0.3-0.4-0.3-0.7v-11.5
			H93.1v11.5c0,0.3-0.1,0.5-0.3,0.7c-0.2,0.2-0.4,0.2-0.7,0.2h-6c-0.6,0-0.9-0.3-0.9-0.8V220.2z"/>
		<path fill="#A7C38D" d="M117.6,220.2c0-0.3,0.1-0.5,0.2-0.7c0.2-0.2,0.4-0.3,0.7-0.3h20.1c0.3,0,0.5,0.1,0.7,0.3
			c0.2,0.2,0.2,0.4,0.2,0.7v5c0,0.2-0.1,0.4-0.2,0.7c-0.2,0.2-0.4,0.3-0.7,0.3h-13.1v5h10.1c0.3,0,0.5,0.1,0.6,0.2
			c0.2,0.1,0.3,0.3,0.3,0.6v4.4c0,0.2-0.1,0.4-0.2,0.5c-0.1,0.2-0.4,0.3-0.6,0.3h-10.1v5.2H139c0.6,0,0.9,0.3,0.9,0.9v5.1
			c0,0.1-0.1,0.3-0.2,0.4c-0.1,0.4-0.3,0.6-0.8,0.6h-20.5c-0.3,0-0.5-0.1-0.6-0.2c-0.2-0.1-0.2-0.4-0.2-0.7V220.2z"/>
	</g>
	<path fill="#F2B826" d="M232.6,27.8l28.1,5.6c0.7,0.1,0.7,1.2,0,1.3l-31.7,4.5c-0.5,0.1-0.7,0.6-0.4,1l17.9,25.5
		c0.5,0.7-0.4,1.4-1,0.8L222.1,44c-0.3-0.4-0.9-0.2-1.1,0.3l-5.1,16.4c-0.2,0.7-1.2,0.6-1.3-0.2l-1-16c0-0.5-0.7-0.8-1.1-0.5
		l-23.7,20.7c-0.6,0.5-1.5-0.3-0.9-0.9l22.2-26.2c0.3-0.4,0.1-1-0.4-1.1l-26.8-3c-0.8-0.1-0.8-1.2,0-1.3l28.3-2c0.5,0,0.7-0.5,0.5-1
		L200.5,7.8c-0.4-0.7,0.6-1.3,1.1-0.7l13.8,15.7c0.3,0.4,1,0.2,1.1-0.3l4.9-18.6c0.2-0.7,1.3-0.6,1.3,0.2V21c0,0.6,0.7,0.9,1.1,0.5
		L241,6.4c0.5-0.5,1.3,0.1,1,0.8l-9.8,19.7C232,27.2,232.2,27.7,232.6,27.8"/>
</g>
</svg>
