<?xml version="1.0" encoding="utf-8"?>
<svg version="1.1" id="Layer_1" xmlns="http://www.w3.org/2000/svg" xmlns:xlink="http://www.w3.org/1999/xlink" x="0px" y="0px"
	 viewBox="0 0 288.2 79.9" enable-background="new 0 0 288.2 79.9" xml:space="preserve">
<path fill="#F15D5D" d="M15.4,31.1c-0.1,0-0.1,0-0.2,0.1c-0.3,0.1-0.7,0.3-1,0.5c-0.4,0.1-0.8,0.2-1.2,0.2c0,0-0.1,0-0.1,0
	c-0.7,0-1.4,0-2.1,0.1c-0.2,0-0.5,0-0.7,0c-0.1,0-0.2-0.1-0.2-0.2c-0.1-0.5,0-1.1-0.1-1.6l-0.1-3.3c0-0.4,0-0.8,0-1.1
	c-0.1-0.4,0-0.7,0-1l0-0.6c-0.1-0.4,0.1-0.4,0.4-0.4c0.3,0,0.6,0,0.8,0c0.6-0.1,1.1,0.1,1.7,0.1l0.3,0c1.3,0.4,2.5,1,3.3,1.8
	c0.4,0.7,0.8,1.6,0.9,2.4C17,29.4,16.3,30.4,15.4,31.1 M26.7,29.3c0-1.2-0.1-2.4-0.3-3.5c-0.3-1.4-0.8-2.8-1.4-4.2
	c-0.6-1.3-1.8-2.2-2.4-3.5c-0.1-0.1-0.1-0.2-0.2-0.3c-1.3-0.9-2.4-1.9-3.9-2.5c-3.6-1.5-7.5-1.6-11.4-1.6c-1.5,0-4.2-0.4-5.6,0.3
	c-1.8,0.8-1.4,3.6-1.3,5.1c0.1,2.7,0.1,5.5,0.2,8.2c0.1,5.3,0,10.7,0,16c0,2.7,0,5.3,0.1,8c0,1.3,0.1,2.5,0.1,3.9
	c0,0.4-0.1,1.4,0.1,1.7c0.3,0.4,1.1,0.4,1.6,0.3c1.4-0.1,2.9-0.1,4.3-0.2c0.7,0,1.4-0.1,2.2-0.1c0.4,0,1.1,0.2,1.5-0.1
	c0.3-0.3,0.2-0.5,0.1-0.9c-0.1-1.6-0.2-3.2-0.3-4.8c-0.1-1.6,0-3.1,0-4.7c0-0.8,0-1.6,0-2.3c0-0.7,0.1-1.4,0.1-2.1
	c0-0.1,0.2-0.2,0.4-0.2c5.8-0.2,12-1.8,14.9-7.4C26.2,32.8,26.6,31,26.7,29.3"/>
<path fill="#F15D5D" d="M54.9,47.7c-0.1,0-0.2-0.1-0.4-0.1c-4.1-0.1-8.3-0.3-12.4-0.4c-0.2,0-0.3,0-0.4-0.1
	c-0.1-0.1-0.1-0.2-0.1-0.4c-0.1-1.7-0.2-4.1-0.2-5.8c1.7-0.1,3.3-0.1,5-0.2c0.7,0,1.6-0.1,2-0.7c0.3-0.4,0.3-0.8,0.4-1.3
	c0.2-2.3,0.1-4.5-0.3-6.8c0-0.3-0.1-0.6-0.3-0.7c-0.2-0.1-0.4-0.1-0.7-0.1c-2.1,0-4.2,0.1-6.3,0.1c-0.2,0-0.4,0-0.5-0.1
	c-0.1-0.1-0.1-0.3-0.1-0.5c-0.1-2.3-0.2-4.6-0.1-6.9c0-0.1,0-0.2,0.1-0.3c0.1-0.2,0.4-0.2,0.7-0.1c4,0.7,8,0.9,12,0.6
	c0.3,0,0.7-0.1,0.9-0.3c0.3-0.2,0.4-0.6,0.4-1c0.4-2.5,0.4-5,0-7.5c0-0.2-0.1-0.4-0.2-0.5c-0.2-0.2-0.5-0.2-0.8-0.2
	c-6.1-0.2-12.1-0.4-18.2-0.7c-1,0-2-0.1-2.9,0.3c-1,0.4-1,1.4-1.1,2.3c-0.5,12.4-0.6,25.4-0.2,37.8c0,0.9,0.1,2,0.9,2.6
	C32.6,57,33.3,57,34,57c6.7,0,13.4,0.1,20.1,0.1c0.1,0,0.3,0,0.4-0.1c0.1-0.1,0.2-0.3,0.2-0.5c0.3-2.8,0.5-5.6,0.6-8.4
	c0-0.2,0-0.3-0.1-0.4C55,47.7,55,47.7,54.9,47.7"/>
<path fill="#F15D5D" d="M85.4,41.3c-0.4,0.7-0.9,1.4-1.4,2c-1.6,1.7-3.9,2.5-6,3.4c-1.1,0.2-2.1,0.4-3.2,0.6
	c-0.4,0.1-0.8,0.2-1.3,0.2c-0.7,0-0.8-0.1-0.8-0.8c0-1.6,0-3.2-0.1-4.8c0-1.2,0-2.4-0.1-3.6c0-0.9-0.1-1.8-0.1-2.6
	c0-1.1,0-2.3,0-3.4c0-0.9,0-1.8-0.1-2.7c-0.1-2-0.1-4.1-0.1-6.1c0-0.3,0.2-0.5,0.5-0.5c0.1,0,0.3,0,0.4,0c2,0.2,4.2,1.1,6.1,1.8
	c1.9,0.7,3.8,1.7,5,3.3c1,1.3,1.5,2.9,1.9,4.5c0.4,1.6,0.7,3.3,0.5,5C86.4,38.9,86,40.2,85.4,41.3 M96.4,32.7
	c-0.3-2-0.9-3.8-1.8-5.8C92.2,21.5,86.6,17,81,15c-2.9-1-6.1-1.5-9.2-1.4c-3.2,0.1-6.1,1.1-9.2,1.6c0,0-0.1,0-0.1,0
	c-0.4,0-0.4,0.2-0.4,0.5c0,0.1,0,0.1,0,0.2c0.1,0.3,0.1,0.7,0.1,1c0,1,0,2.1,0.1,3.1c0.3,6.1,0.5,12.2,0.5,18.3c0,6-0.3,12,0.1,18.1
	c0,0.2,0.2,0.5,0.4,0.5c3.5,0.6,6.9,0.6,10.3-0.1c0.1,0.1,0.1,0.1,0.2,0.1c0.5-0.1,1.1-0.1,1.6-0.2c4.9-0.2,10.4-2.8,14.1-5.8
	c2.7-2.1,4.9-4.9,6-8.1c0.7-2.2,0.9-4.5,1-6.8C96.6,35,96.6,33.8,96.4,32.7"/>
<path fill="#F15D5D" d="M115,39.7c0-0.2,0-0.4,0-0.5c0-0.1,0-0.2-0.1-0.3c0-0.6-0.1-1.1-0.1-1.7c0-1.8,0-3.6,0-5.4l0-0.2
	c0,0,0-0.1,0-0.1l0-0.6c0,0,0-0.1,0-0.1c0-1.2,0.1-2.1,0.1-3.3c0-0.8,0-2.7-0.1-3.6c0-0.9,0.1-0.9-0.8-1c-0.8-0.1-1.7-0.1-2.5-0.1
	c-0.5,0-1,0.1-1.6-0.1c-0.4-0.1-0.7-0.1-1,0c-0.1,0.1-0.2,0.1-0.4,0.1h-3.2c-0.1,0-0.2,0.2-0.2,0.2c0,0,0,0.1,0,0.1
	c-0.1,0.1-0.1,0.2-0.1,0.3c-0.1,3.6,0,8.2-0.1,11.8c0,6.3-0.4,12.6-0.3,18.9c0,0.6,0.1,1.1,0.2,1.7c0.1,0.5,0.1,0.9,0.6,1.2
	c0.5,0.3,1.1,0.2,1.7,0.1c0.7-0.1,1.3-0.1,2-0.2c1.7,0,3.4,0.5,5-0.1c0.2-0.1,0.4-0.1,0.5-0.3c0.1-0.1,0.1-0.3,0.1-0.4
	C114.8,51.2,115,44.9,115,39.7"/>
<path fill="#F15D5D" d="M144.8,37.1c-0.9,0-1.9,0-2.8,0c-0.9,0-1.8,0.1-2.7,0.1c-0.1,0-0.2-0.2-0.2-0.4c0-0.2,0-0.4,0.1-0.5
	c0-0.2,0.2-0.4,0.2-0.6c0.2-0.5,0.6-1,0.8-1.5c0.3-0.5,0.5-1,0.8-1.6c0.5-1,1-2,1.6-3c0.1,0.6,0.5,1.1,0.7,1.6
	c0.2,0.6,0.5,1.2,0.7,1.8c0.2,0.6,0.4,1.1,0.6,1.7c0.2,0.6,0.3,1.3,0.5,1.9C145.1,37,145.1,37.1,144.8,37.1 M160.3,55.1
	c-3.2-9.6-6.3-19.7-9.2-29.5c-0.7-2.2-1.3-4.4-1.8-6.6c-0.3-1.5-0.3-4.7-2-5.2c-0.6-0.2-1.1-0.2-1.7-0.1c-0.6,0-1.3,0.1-1.9,0.1
	c-1.9,0-3.9,0.1-5.8,0.1c-0.5,0-0.6,0.8-0.7,1.2c-0.3,1-0.9,2.6-1.3,3.5c-0.6,1.3-1.1,2.7-1.7,4c-0.8,1.8-1.5,3.6-2.3,5.3
	c-0.6,1.3-1.1,2.6-1.7,3.9c-1.1,2.5-2.1,5-3.1,7.5c-1.1,2.9-2.2,5.8-3.3,8.7c-0.5,1.5-1.1,3-1.6,4.5c-0.3,0.9-1.6,3.4-0.2,3.7
	c2.8,0.5,5.6,0.9,8.4,1c0.1,0,0.2,0,0.3-0.1c0.2,0.1,0.4-0.1,0.4-0.3c0.2-1,0.6-2,0.9-3c0.2-0.8,0.5-1.5,0.7-2.3
	c0.2-0.7,0.7-1.4,0.8-2.2c0.1-0.3,0.1-0.5,0.3-0.8c0.1-0.2,0.1-0.5,0.2-0.7c0,0,0-0.1,0-0.1c4.6-0.1,9.3-0.1,13.9-0.2
	c0.4,0,0.6,2.3,0.7,2.6c0.3,1.7,0.7,3.4,0.8,5.2c0,0.3,0,0.7,0.2,1c0.2,0.7,0.8,0.9,1.5,1C152.7,57.4,161.3,58.5,160.3,55.1"/>
<path fill="#F15D5D" d="M192.8,17.6c0-0.2,0-0.4,0-0.6c0-0.5,0.2-2.6-0.1-2.9c-0.1-0.1-0.2-0.2-0.4-0.2c-0.4-0.1-0.9-0.2-1.3-0.2
	l-9.8,0c-2.3,0.1-4.6,0.1-6.9,0.1l-6.6-0.1c-2.4,0.1-4.8-0.1-7.2,0c-0.2,0-0.5,0.2-0.5,0.3c-0.1,0.4-0.1,1.8-0.1,2.2v4.7
	c0,1.1-0.1,2.3-0.1,3.5c0,0.8,0.2,1,1,1c0.4,0,0.8-0.1,1.3-0.1c1.1-0.1,2.3-0.2,3.5-0.2c1.3,0,2.6,0,3.9-0.1c0.7,0,1,0.2,1,0.9
	c0.1,1.5,0.1,2.9,0.1,4.4v4.3c-0.1,1.5-0.1,2.9-0.1,4.4c0,3-0.1,5.9-0.2,8.9c0,1.5-0.1,3-0.1,4.5c0,1.3-0.2,2.8,0.5,4
	c0.4,0.8,0.9,0.7,1.8,0.7h1.3c0.8-0.1,1.6,0,2.3-0.1l2.5-0.2c0.5-0.1,0.9-0.1,1.4-0.1c0.4,0,0.4-0.2,0.4-0.5
	c-0.4-1.9-0.2-3.8-0.2-5.6l0.2-4.9c0-1,0.1-2.1,0.1-3.1c0.1-1.4,0.1-2.8,0.1-4.2c-0.1-3-0.1-5.9-0.1-8.9c0-1.4,0-2.8,0.1-4.1
	c0-0.1,0-0.2,0.1-0.4c1.7-0.1,3.5-0.1,5.2-0.2c1.6-0.1,3.9,0.2,5.5-0.3c0.4-0.1,0.7-0.3,1-0.6c0.4-0.4,0.6-0.4,0.8-1.1
	c0.1-0.6,0-1.4,0.1-2C192.8,19.6,192.8,18.6,192.8,17.6"/>
<path fill="#F15D5D" d="M212.8,28c-1.3,0-2.6-0.1-3.9-0.1c-0.1,0,0.1-5,0.1-5.4c0-0.2,0-0.4,0.1-0.5c0.4-0.7,2.7-0.4,3.3,0
	c0.1,0.1,0.2,0.2,0.3,0.2c0.2,0.1,0.5,0.2,0.7,0.3c0.7,0.5,1.3,1.1,1.6,1.8c0.4,1,0.2,2-0.1,2.9c-0.1,0.2-0.3,0.3-0.4,0.5
	c-0.1,0.1-0.4,0.2-0.6,0.2H212.8z M227.4,55.2c-2.3-5.4-3.4-9.4-5.8-14.7c-0.1-0.3-1.8-3.5-1.6-3.7c3-2.9,4.9-7.1,4.7-11.3
	c-0.2-4-2.6-8.8-6.4-10.5c-0.2-0.1-0.3-0.1-0.5-0.2c-1.3-0.5-2.6-0.7-3.9-0.8c-3.2-0.3-6.4-0.3-9.6,0c-1.3,0.1-2.6,0.4-3.8,0.5
	c-1,0.1-1.8,0.5-1.9,1.6c-0.3,6.8-0.1,12.2,0.2,19c0.3,7,0.1,13.3,0.1,20.3c0,0.4,0.1,0.6,0.2,0.9c0.1,0.1,0.1,0.3,0.2,0.3
	c0,0,0,0,0.1,0c1.6,0.7,3.5,0.4,5.2,0.4c1.1,0,2.3,0,3.4,0.1c0.4,0,0.5-0.1,0.5-0.5c-0.1-0.9-0.1-1.9-0.1-2.8
	c0-3.8-0.1-6.9-0.1-10.7c0-1.3,0-2.6-0.1-3.9c0-0.4-0.1-0.8-0.1-1.3c0.4-0.4,1.4-0.6,1.8-0.4c0.1,0.1,0.2,0.2,0.3,0.3l1.3,2.6
	c0.7,1.6,1.5,3.2,2.1,4.8c0.8,1.9,1.4,3.9,2.2,5.8l0.2,0.7c0.8,2.1,1.2,2.5,2.1,4.6c0.2,0.5,0.6,0.7,1.2,0.7
	c0.5-0.1,1.1-0.1,1.7-0.1c0.7,0,1.5-0.1,2.2-0.1c1.1-0.1,2.3-0.3,3.4-0.5C227.4,56.3,227.7,55.9,227.4,55.2"/>
<path fill="#F15D5D" d="M246.2,20.1c0-0.3,0-0.6,0.1-0.9c0.1-1.5,0.5-2.9,0-4.4c0-0.2-0.1-0.4-0.1-0.6c-0.1-1-2.8-0.6-3.4-0.5
	c-1.9,0.2-3.8-0.2-5.6,0.2c-0.8,0.1-0.9,0.5-1,1.2c-0.6,4.6,0,9.4,0,14c0,9.1-0.7,18.2-0.7,27.4c0,0.9,1.7,0.5,2.3,0.5
	c2.2,0,4.4,0.3,6.6,0.2c0.5,0,1.9,0,1.9-0.8c-0.2-6.8-0.3-14.8-0.3-21.6c0-3.5,0.1-6.9,0.2-10.4C246.1,22.9,246.1,21.5,246.2,20.1"
	/>
<path fill="#F15D5D" d="M268.6,24.1C268.6,24.1,268.6,24.1,268.6,24.1L268.6,24.1z"/>
<path fill="#F15D5D" d="M286.9,49.6c-1.2-1.4-2.7-2.7-3.8-4c-0.2-0.2-0.3-0.3-0.5-0.5c-0.2-0.3-0.3-0.4-0.6-0.2
	c-0.1,0.1-0.3,0.2-0.4,0.3c-4.4,2.3-12.1,2.4-15.6-1.5c-0.1-0.1-0.3-0.2-0.4-0.2c-0.5-0.5-1.1-1.1-1.6-1.6c-0.1-0.3-0.2-0.5-0.4-0.7
	c-0.3-0.7-0.7-1.3-1-2c-0.2-0.4-0.4-0.9-0.5-1.4c-0.8-3.4,0.7-7.9,2.6-10.7c0.3-0.5,0.7-1,1.2-1.5c1.3-1.3,2.8-2.4,4.8-2.4
	c1.9,0,3.9,0.4,5.6,1.2c1.7,0.8,3,2.5,4.8,2.9c0.1,0.1,0.2,0.2,0.4,0.2c0.3,0.2,0.9,0.1,1.1-0.2c1.7-1.3,3.5-2.6,4.9-4.3
	c0.3-0.4,0.7-0.7,0.7-1.3c0-1.9-1.8-3.5-3.2-4.5c-1.4-1-2.9-1.6-4.5-2.2c-4.1-1.4-8.5-2.2-12.8-1c-4.9,1.5-7.8,4.9-10.8,8.7
	c-0.2,0.2-0.3,0.4-0.5,0.7c-0.2,0.5-0.4,1.1-0.6,1.6c-0.5,1-1,2-1.4,3c-0.4,1.1-0.7,2.3-0.9,3.4c-0.3,1.5-0.6,2.9-0.3,4.4
	c0.2,1.2,0.3,3.2,0.6,4.4c0.2,0.8,0.5,1.5,0.7,2.2c1.9,4.7,5.6,9,9.8,11.7c4.8,3,10.3,3.5,15.6,1.6c0.9-0.3,1.7-0.7,2.6-1
	c0.2-0.1,0.3-0.2,0.6-0.3c0.4-0.2,0.9-0.4,1.2-0.6c0.7-0.4,1.4-0.8,2.1-1.2c0.6-0.3,1.1-0.8,1.7-1.2c0.1-0.1,0.1-0.3,0.1-0.4
	C287.8,50.7,287.4,50.2,286.9,49.6"/>
<path fill="#F3B81F" d="M114.4,8.1l9.3,1.9c0.2,0,0.2,0.4,0,0.4l-10.5,1.5c-0.2,0-0.2,0.2-0.1,0.3l5.9,8.5c0.2,0.2-0.1,0.5-0.3,0.3
	l-7.7-7.5c-0.1-0.1-0.3-0.1-0.4,0.1l-1.7,5.4c-0.1,0.2-0.4,0.2-0.4-0.1l-0.3-5.3c0-0.2-0.2-0.3-0.4-0.1l-7.9,6.9
	c-0.2,0.2-0.5-0.1-0.3-0.3l7.4-8.7c0.1-0.1,0-0.3-0.1-0.4l-8.9-1c-0.3,0-0.3-0.4,0-0.4l9.4-0.7c0.2,0,0.2-0.2,0.2-0.3l-3.7-7.2
	c-0.1-0.2,0.2-0.4,0.4-0.2l4.6,5.2c0.1,0.1,0.3,0.1,0.4-0.1l1.6-6.2c0.1-0.2,0.4-0.2,0.4,0.1v5.6c0,0.2,0.2,0.3,0.4,0.2l5.7-5
	c0.2-0.2,0.4,0,0.3,0.3l-3.3,6.5C114.2,7.9,114.2,8.1,114.4,8.1"/>
<g>
	<path fill="#007B9A" d="M6.6,71c-0.1,0.3-0.2,0.6-0.3,1c-0.1,0.3-0.2,0.7-0.3,1c-0.1,0.3-0.2,0.7-0.3,1c-0.1,0.3-0.2,0.7-0.3,0.9
		h2.7L6.6,71z M5,67.3c0,0,0-0.1,0.1-0.1c0,0,0.1-0.1,0.1-0.1c0,0,0.1-0.1,0.1-0.1c0.1,0,0.1,0,0.1,0h2.2c0.1,0,0.2,0,0.3,0.1
		c0.1,0.1,0.1,0.1,0.2,0.2l0.2,0.5l4.5,11.7c0,0.1,0,0.2,0,0.3c-0.1,0.1-0.2,0.1-0.3,0.1H10c-0.1,0-0.2,0-0.3-0.1
		c-0.1,0-0.1-0.1-0.2-0.2c-0.1-0.3-0.2-0.6-0.3-0.9C9.1,78.3,9,78,8.9,77.7H4.3C4.2,78,4.1,78.3,4,78.6c-0.1,0.3-0.2,0.6-0.3,0.9
		c-0.1,0.2-0.2,0.3-0.4,0.3H0.6c-0.1,0-0.2,0-0.3-0.1c-0.1-0.1-0.1-0.1,0-0.3L5,67.3z"/>
	<path fill="#007B9A" d="M17.4,75.6c0.1,0.1,0.2,0.2,0.4,0.3c0.2,0.1,0.3,0.3,0.5,0.4c0.3,0.2,0.6,0.3,0.9,0.5
		c0.3,0.1,0.6,0.2,0.9,0.2c0.3,0,0.5,0,0.7-0.1c0.2-0.1,0.4-0.2,0.5-0.3c0.1-0.1,0.2-0.2,0.2-0.4c0-0.1,0.1-0.3,0.1-0.5
		c0-0.2-0.1-0.3-0.2-0.5c-0.1-0.1-0.3-0.3-0.5-0.4c-0.2-0.1-0.4-0.2-0.6-0.3c-0.2-0.1-0.4-0.1-0.6-0.2c-0.7-0.2-1.3-0.5-1.8-0.8
		c-0.5-0.3-1-0.6-1.3-0.9c-0.3-0.3-0.6-0.7-0.8-1.1c-0.2-0.4-0.3-0.9-0.3-1.4c0-0.5,0.1-1,0.3-1.5c0.2-0.4,0.5-0.8,0.9-1.1
		c0.4-0.3,0.9-0.6,1.5-0.7c0.6-0.2,1.2-0.3,1.9-0.3c0.5,0,1,0.1,1.5,0.2c0.5,0.1,1,0.3,1.4,0.6c0.2,0.1,0.4,0.2,0.6,0.4
		c0.2,0.1,0.3,0.2,0.5,0.4c0.1,0.1,0.2,0.2,0.3,0.3c0.1,0.1,0.1,0.2,0.1,0.3c0,0.1,0,0.1-0.1,0.2c0,0.1-0.1,0.1-0.2,0.2l-1.3,1.4
		c-0.1,0.1-0.2,0.1-0.3,0.1c-0.1,0-0.2,0-0.2-0.1c-0.1,0-0.1-0.1-0.2-0.2l-0.1-0.1c-0.1-0.1-0.2-0.2-0.4-0.3
		c-0.1-0.1-0.3-0.2-0.5-0.3c-0.2-0.1-0.3-0.2-0.5-0.2c-0.2-0.1-0.4-0.1-0.5-0.1c-0.2,0-0.4,0-0.5,0c-0.2,0-0.3,0.1-0.4,0.2
		c-0.1,0.1-0.2,0.2-0.3,0.3C19,70.1,19,70.2,19,70.4s0,0.3,0.1,0.4c0.1,0.1,0.2,0.2,0.4,0.3c0.2,0.1,0.4,0.2,0.6,0.3
		c0.2,0.1,0.5,0.2,0.8,0.3c0.6,0.2,1.2,0.4,1.7,0.6c0.5,0.2,1,0.5,1.3,0.8c0.4,0.3,0.7,0.7,0.9,1.1c0.2,0.4,0.3,0.9,0.3,1.5
		c0,0.6-0.1,1.2-0.4,1.7c-0.3,0.5-0.6,1-1.1,1.3c-0.5,0.4-1,0.6-1.6,0.8c-0.6,0.2-1.3,0.3-2,0.3c-0.7,0-1.3-0.1-2-0.4
		c-0.6-0.2-1.2-0.6-1.8-1c-0.2-0.2-0.4-0.3-0.6-0.5c-0.2-0.2-0.3-0.3-0.4-0.4l0,0c0,0,0,0,0,0c0,0,0,0,0,0c0,0,0,0,0,0c0,0,0,0,0,0
		c-0.1-0.1-0.2-0.3-0.2-0.3c0-0.1,0.1-0.2,0.2-0.3l1.5-1.4c0.1-0.1,0.2-0.1,0.3-0.1c0.1,0,0.1,0,0.2,0.1
		C17.3,75.5,17.3,75.5,17.4,75.6"/>
	<path fill="#007B9A" d="M30.5,75.6c0.1,0.1,0.2,0.2,0.4,0.3c0.2,0.1,0.3,0.3,0.5,0.4c0.3,0.2,0.6,0.3,0.9,0.5
		c0.3,0.1,0.6,0.2,0.9,0.2c0.3,0,0.5,0,0.7-0.1c0.2-0.1,0.4-0.2,0.5-0.3c0.1-0.1,0.2-0.2,0.2-0.4c0-0.1,0.1-0.3,0.1-0.5
		c0-0.2-0.1-0.3-0.2-0.5c-0.1-0.1-0.3-0.3-0.5-0.4c-0.2-0.1-0.4-0.2-0.6-0.3c-0.2-0.1-0.4-0.1-0.6-0.2c-0.7-0.2-1.3-0.5-1.8-0.8
		c-0.5-0.3-1-0.6-1.3-0.9c-0.3-0.3-0.6-0.7-0.8-1.1c-0.2-0.4-0.3-0.9-0.3-1.4c0-0.5,0.1-1,0.3-1.5c0.2-0.4,0.5-0.8,0.9-1.1
		c0.4-0.3,0.9-0.6,1.5-0.7c0.6-0.2,1.2-0.3,1.9-0.3c0.5,0,1,0.1,1.5,0.2c0.5,0.1,1,0.3,1.4,0.6c0.2,0.1,0.4,0.2,0.6,0.4
		c0.2,0.1,0.3,0.2,0.5,0.4c0.1,0.1,0.2,0.2,0.3,0.3c0.1,0.1,0.1,0.2,0.1,0.3c0,0.1,0,0.1-0.1,0.2c0,0.1-0.1,0.1-0.2,0.2l-1.3,1.4
		c-0.1,0.1-0.2,0.1-0.3,0.1c-0.1,0-0.2,0-0.2-0.1c-0.1,0-0.1-0.1-0.2-0.2l-0.1-0.1c-0.1-0.1-0.2-0.2-0.4-0.3
		c-0.1-0.1-0.3-0.2-0.5-0.3c-0.2-0.1-0.3-0.2-0.5-0.2c-0.2-0.1-0.4-0.1-0.5-0.1c-0.2,0-0.4,0-0.5,0c-0.2,0-0.3,0.1-0.4,0.2
		c-0.1,0.1-0.2,0.2-0.3,0.3c-0.1,0.1-0.1,0.2-0.1,0.4s0,0.3,0.1,0.4c0.1,0.1,0.2,0.2,0.4,0.3c0.2,0.1,0.4,0.2,0.6,0.3
		c0.2,0.1,0.5,0.2,0.8,0.3c0.6,0.2,1.2,0.4,1.7,0.6c0.5,0.2,1,0.5,1.3,0.8c0.4,0.3,0.7,0.7,0.9,1.1c0.2,0.4,0.3,0.9,0.3,1.5
		c0,0.6-0.1,1.2-0.4,1.7c-0.3,0.5-0.6,1-1.1,1.3c-0.5,0.4-1,0.6-1.6,0.8c-0.6,0.2-1.3,0.3-2,0.3c-0.7,0-1.3-0.1-2-0.4
		c-0.6-0.2-1.2-0.6-1.8-1c-0.2-0.2-0.4-0.3-0.6-0.5c-0.2-0.2-0.3-0.3-0.4-0.4l0,0c0,0,0,0,0,0c0,0,0,0,0,0c0,0,0,0,0,0c0,0,0,0,0,0
		c-0.1-0.1-0.2-0.3-0.2-0.3c0-0.1,0.1-0.2,0.2-0.3l1.5-1.4c0.1-0.1,0.2-0.1,0.3-0.1c0.1,0,0.1,0,0.2,0.1
		C30.4,75.5,30.4,75.5,30.5,75.6"/>
	<path fill="#007B9A" d="M44.8,73.3c0,0.5,0.1,0.9,0.2,1.3c0.2,0.4,0.4,0.8,0.7,1.1c0.3,0.3,0.6,0.6,1,0.7c0.4,0.2,0.8,0.3,1.3,0.3
		c0.5,0,0.9-0.1,1.3-0.3c0.4-0.2,0.7-0.4,1-0.7c0.3-0.3,0.5-0.7,0.7-1.1c0.2-0.4,0.2-0.9,0.2-1.3c0-0.5-0.1-0.9-0.2-1.3
		c-0.2-0.4-0.4-0.8-0.7-1.1c-0.3-0.3-0.6-0.6-1-0.7c-0.4-0.2-0.8-0.3-1.3-0.3c-0.5,0-0.9,0.1-1.3,0.3c-0.4,0.2-0.7,0.4-1,0.7
		S45.2,71.6,45,72C44.8,72.4,44.8,72.9,44.8,73.3 M41.4,73.4c0-0.6,0.1-1.2,0.2-1.8c0.2-0.6,0.4-1.1,0.7-1.6c0.3-0.5,0.6-0.9,1-1.3
		c0.4-0.4,0.8-0.7,1.3-1c0.5-0.3,1-0.5,1.6-0.7c0.6-0.2,1.2-0.2,1.8-0.2c0.6,0,1.2,0.1,1.8,0.2s1.1,0.4,1.6,0.7
		c0.5,0.3,0.9,0.6,1.3,1c0.4,0.4,0.7,0.9,1,1.3c0.3,0.5,0.5,1,0.7,1.6c0.2,0.6,0.2,1.2,0.2,1.8c0,0.6-0.1,1.2-0.2,1.8
		c-0.2,0.6-0.4,1.1-0.7,1.6c-0.3,0.5-0.6,0.9-1,1.3c-0.4,0.4-0.9,0.7-1.3,1c-0.5,0.3-1,0.5-1.6,0.7C49.2,79.9,48.6,80,48,80
		c-0.6,0-1.2-0.1-1.8-0.2c-0.6-0.2-1.1-0.4-1.6-0.7c-0.5-0.3-0.9-0.6-1.3-1c-0.4-0.4-0.7-0.8-1-1.3c-0.3-0.5-0.5-1-0.7-1.6
		C41.5,74.6,41.4,74,41.4,73.4"/>
	<path fill="#007B9A" d="M68.3,67.8c0.1,0.1,0.2,0.1,0.2,0.2c0,0.1,0,0.2,0,0.3L67,70.5c-0.1,0.1-0.1,0.2-0.2,0.2
		c-0.1,0-0.2,0-0.3-0.1c-0.3-0.2-0.6-0.4-0.9-0.5c-0.3-0.1-0.7-0.2-1.1-0.2c-0.5,0-0.9,0.1-1.3,0.3c-0.4,0.2-0.7,0.4-1,0.7
		c-0.3,0.3-0.5,0.7-0.7,1.1c-0.2,0.4-0.2,0.9-0.2,1.3s0.1,0.9,0.2,1.3c0.2,0.4,0.4,0.8,0.7,1.1c0.3,0.3,0.6,0.6,1,0.7
		c0.4,0.2,0.8,0.3,1.3,0.3c0.4,0,0.7-0.1,1.1-0.2c0.3-0.1,0.7-0.3,0.9-0.5c0.1-0.1,0.2-0.1,0.3-0.1c0.1,0,0.1,0.1,0.2,0.2l1.5,2.1
		c0.1,0.1,0.1,0.2,0,0.3c0,0.1-0.1,0.2-0.2,0.2c-0.5,0.4-1.1,0.6-1.8,0.8c-0.6,0.2-1.3,0.3-2,0.3c-0.6,0-1.2-0.1-1.8-0.2
		c-0.6-0.2-1.1-0.4-1.6-0.7c-0.5-0.3-0.9-0.6-1.3-1c-0.4-0.4-0.7-0.8-1-1.3c-0.3-0.5-0.5-1-0.7-1.6C58.1,74.6,58,74,58,73.4
		c0-0.6,0.1-1.2,0.2-1.8c0.2-0.6,0.4-1.1,0.7-1.6c0.3-0.5,0.6-0.9,1-1.3c0.4-0.4,0.8-0.7,1.3-1c0.5-0.3,1-0.5,1.6-0.7
		c0.6-0.2,1.2-0.2,1.8-0.2c0.7,0,1.3,0.1,2,0.3C67.2,67.2,67.8,67.5,68.3,67.8"/>
	<path fill="#007B9A" d="M72.5,67.3c0-0.1,0-0.2,0.1-0.3c0.1-0.1,0.2-0.1,0.3-0.1h2.5c0.1,0,0.2,0,0.3,0.1c0.1,0.1,0.1,0.2,0.1,0.3
		v12.1c0,0.3-0.1,0.4-0.4,0.4h-2.5c-0.3,0-0.4-0.1-0.4-0.4V67.3z"/>
	<path fill="#007B9A" d="M85.6,71c-0.1,0.3-0.2,0.6-0.3,1c-0.1,0.3-0.2,0.7-0.3,1c-0.1,0.3-0.2,0.7-0.3,1c-0.1,0.3-0.2,0.7-0.3,0.9
		h2.7L85.6,71z M84,67.3c0,0,0-0.1,0.1-0.1c0,0,0.1-0.1,0.1-0.1c0,0,0.1-0.1,0.1-0.1c0.1,0,0.1,0,0.1,0h2.2c0.1,0,0.2,0,0.3,0.1
		c0.1,0.1,0.1,0.1,0.2,0.2l0.2,0.5l4.5,11.7c0,0.1,0,0.2,0,0.3c-0.1,0.1-0.2,0.1-0.3,0.1H89c-0.1,0-0.2,0-0.3-0.1
		c-0.1,0-0.1-0.1-0.2-0.2c-0.1-0.3-0.2-0.6-0.3-0.9c-0.1-0.3-0.2-0.6-0.3-0.9h-4.6c-0.1,0.3-0.2,0.6-0.3,0.9s-0.2,0.6-0.3,0.9
		c-0.1,0.2-0.2,0.3-0.4,0.3h-2.6c-0.1,0-0.2,0-0.3-0.1c-0.1-0.1-0.1-0.1,0-0.3L84,67.3z"/>
	<path fill="#007B9A" d="M92.5,67.3c0-0.1,0-0.2,0.1-0.3c0.1-0.1,0.2-0.1,0.3-0.1h9.3c0.1,0,0.2,0,0.3,0.1c0.1,0.1,0.1,0.2,0.1,0.3
		v2.2c0,0.1,0,0.2-0.1,0.3c-0.1,0.1-0.2,0.1-0.3,0.1h-3v9.5c0,0.1,0,0.2-0.1,0.3c-0.1,0.1-0.2,0.1-0.3,0.1h-2.5
		c-0.1,0-0.2,0-0.3-0.1c-0.1-0.1-0.1-0.2-0.1-0.3v-9.5h-3c-0.1,0-0.2,0-0.3-0.1c-0.1-0.1-0.1-0.2-0.1-0.3V67.3z"/>
	<path fill="#007B9A" d="M106.4,67.3c0-0.1,0-0.2,0.1-0.3c0.1-0.1,0.2-0.1,0.3-0.1h8.6c0.1,0,0.2,0,0.3,0.1c0.1,0.1,0.1,0.2,0.1,0.3
		v2.1c0,0.1,0,0.2-0.1,0.3c-0.1,0.1-0.2,0.1-0.3,0.1h-5.6V72h4.3c0.1,0,0.2,0,0.3,0.1c0.1,0.1,0.1,0.1,0.1,0.3v1.9
		c0,0.1,0,0.2-0.1,0.2c-0.1,0.1-0.2,0.1-0.3,0.1h-4.3v2.2h5.8c0.3,0,0.4,0.1,0.4,0.4v2.2c0,0.1,0,0.1-0.1,0.2c0,0.2-0.1,0.2-0.4,0.2
		h-8.8c-0.1,0-0.2,0-0.3-0.1c-0.1-0.1-0.1-0.2-0.1-0.3V67.3z"/>
	<path fill="#007B9A" d="M121.5,75.6c0.1,0.1,0.2,0.2,0.4,0.3c0.2,0.1,0.3,0.3,0.5,0.4c0.3,0.2,0.6,0.3,0.9,0.5
		c0.3,0.1,0.6,0.2,0.9,0.2c0.3,0,0.5,0,0.7-0.1c0.2-0.1,0.4-0.2,0.5-0.3c0.1-0.1,0.2-0.2,0.2-0.4c0-0.1,0.1-0.3,0.1-0.5
		c0-0.2-0.1-0.3-0.2-0.5c-0.1-0.1-0.3-0.3-0.5-0.4c-0.2-0.1-0.4-0.2-0.6-0.3c-0.2-0.1-0.4-0.1-0.6-0.2c-0.7-0.2-1.3-0.5-1.8-0.8
		c-0.5-0.3-1-0.6-1.3-0.9c-0.3-0.3-0.6-0.7-0.8-1.1c-0.2-0.4-0.3-0.9-0.3-1.4c0-0.5,0.1-1,0.3-1.5c0.2-0.4,0.5-0.8,0.9-1.1
		c0.4-0.3,0.9-0.6,1.5-0.7c0.6-0.2,1.2-0.3,1.9-0.3c0.5,0,1,0.1,1.5,0.2c0.5,0.1,1,0.3,1.4,0.6c0.2,0.1,0.4,0.2,0.6,0.4
		c0.2,0.1,0.3,0.2,0.5,0.4c0.1,0.1,0.2,0.2,0.3,0.3c0.1,0.1,0.1,0.2,0.1,0.3c0,0.1,0,0.1-0.1,0.2c0,0.1-0.1,0.1-0.2,0.2l-1.3,1.4
		c-0.1,0.1-0.2,0.1-0.3,0.1c-0.1,0-0.2,0-0.2-0.1c-0.1,0-0.1-0.1-0.2-0.2l-0.1-0.1c-0.1-0.1-0.2-0.2-0.4-0.3
		c-0.1-0.1-0.3-0.2-0.5-0.3c-0.2-0.1-0.3-0.2-0.5-0.2c-0.2-0.1-0.4-0.1-0.5-0.1c-0.2,0-0.4,0-0.5,0c-0.2,0-0.3,0.1-0.4,0.2
		c-0.1,0.1-0.2,0.2-0.3,0.3c-0.1,0.1-0.1,0.2-0.1,0.4s0,0.3,0.1,0.4c0.1,0.1,0.2,0.2,0.4,0.3c0.2,0.1,0.4,0.2,0.6,0.3
		c0.2,0.1,0.5,0.2,0.8,0.3c0.6,0.2,1.2,0.4,1.7,0.6c0.5,0.2,1,0.5,1.3,0.8c0.4,0.3,0.7,0.7,0.9,1.1c0.2,0.4,0.3,0.9,0.3,1.5
		c0,0.6-0.1,1.2-0.4,1.7c-0.3,0.5-0.6,1-1.1,1.3c-0.5,0.4-1,0.6-1.6,0.8c-0.6,0.2-1.3,0.3-2,0.3c-0.7,0-1.3-0.1-2-0.4
		c-0.6-0.2-1.2-0.6-1.8-1c-0.2-0.2-0.4-0.3-0.6-0.5c-0.2-0.2-0.3-0.3-0.4-0.4l0,0c0,0,0,0,0,0c0,0,0,0,0,0c0,0,0,0,0,0c0,0,0,0,0,0
		c-0.1-0.1-0.2-0.3-0.2-0.3c0-0.1,0.1-0.2,0.2-0.3l1.5-1.4c0.1-0.1,0.2-0.1,0.3-0.1c0.1,0,0.1,0,0.2,0.1
		C121.3,75.5,121.4,75.5,121.5,75.6"/>
	<path fill="#007B9A" d="M142.9,73.3c0,0.5,0.1,0.9,0.2,1.3c0.2,0.4,0.4,0.8,0.7,1.1c0.3,0.3,0.6,0.6,1,0.7c0.4,0.2,0.8,0.3,1.3,0.3
		c0.5,0,0.9-0.1,1.3-0.3c0.4-0.2,0.7-0.4,1-0.7c0.3-0.3,0.5-0.7,0.7-1.1c0.2-0.4,0.2-0.9,0.2-1.3c0-0.5-0.1-0.9-0.2-1.3
		c-0.2-0.4-0.4-0.8-0.7-1.1c-0.3-0.3-0.6-0.6-1-0.7c-0.4-0.2-0.8-0.3-1.3-0.3c-0.5,0-0.9,0.1-1.3,0.3c-0.4,0.2-0.7,0.4-1,0.7
		c-0.3,0.3-0.5,0.7-0.7,1.1C143,72.4,142.9,72.9,142.9,73.3 M139.5,73.4c0-0.6,0.1-1.2,0.2-1.8c0.2-0.6,0.4-1.1,0.7-1.6
		c0.3-0.5,0.6-0.9,1-1.3c0.4-0.4,0.8-0.7,1.3-1c0.5-0.3,1-0.5,1.6-0.7c0.6-0.2,1.2-0.2,1.8-0.2c0.6,0,1.2,0.1,1.8,0.2
		c0.6,0.2,1.1,0.4,1.6,0.7c0.5,0.3,0.9,0.6,1.3,1c0.4,0.4,0.7,0.9,1,1.3c0.3,0.5,0.5,1,0.7,1.6c0.2,0.6,0.2,1.2,0.2,1.8
		c0,0.6-0.1,1.2-0.2,1.8c-0.2,0.6-0.4,1.1-0.7,1.6c-0.3,0.5-0.6,0.9-1,1.3c-0.4,0.4-0.9,0.7-1.3,1c-0.5,0.3-1,0.5-1.6,0.7
		c-0.6,0.2-1.2,0.2-1.8,0.2c-0.6,0-1.2-0.1-1.8-0.2c-0.6-0.2-1.1-0.4-1.6-0.7c-0.5-0.3-0.9-0.6-1.3-1c-0.4-0.4-0.7-0.8-1-1.3
		c-0.3-0.5-0.5-1-0.7-1.6C139.6,74.6,139.5,74,139.5,73.4"/>
	<path fill="#007B9A" d="M156.7,67.3c0-0.1,0-0.2,0.1-0.3c0.1-0.1,0.1-0.1,0.2-0.1h8.3c0.1,0,0.2,0,0.3,0.1c0.1,0.1,0.1,0.2,0.1,0.3
		v2.1c0,0.1,0,0.2-0.1,0.3c-0.1,0.1-0.2,0.1-0.3,0.1h-5.3v2.7h3.9c0.1,0,0.2,0,0.3,0.1c0.1,0.1,0.1,0.2,0.1,0.3V75
		c0,0.1,0,0.2-0.1,0.3c-0.1,0.1-0.2,0.1-0.3,0.1h-3.9v4c0,0.2-0.1,0.4-0.4,0.4H157c-0.2,0-0.3-0.2-0.3-0.4V67.3z"/>
	<path fill="#007B9A" d="M178.4,75.6c0.1,0.1,0.2,0.2,0.4,0.3c0.2,0.1,0.3,0.3,0.5,0.4c0.3,0.2,0.6,0.3,0.9,0.5
		c0.3,0.1,0.6,0.2,0.9,0.2c0.3,0,0.5,0,0.7-0.1c0.2-0.1,0.4-0.2,0.5-0.3c0.1-0.1,0.2-0.2,0.2-0.4c0-0.1,0.1-0.3,0.1-0.5
		c0-0.2-0.1-0.3-0.2-0.5c-0.1-0.1-0.3-0.3-0.5-0.4c-0.2-0.1-0.4-0.2-0.6-0.3c-0.2-0.1-0.4-0.1-0.6-0.2c-0.7-0.2-1.3-0.5-1.8-0.8
		c-0.5-0.3-1-0.6-1.3-0.9c-0.3-0.3-0.6-0.7-0.8-1.1c-0.2-0.4-0.3-0.9-0.3-1.4c0-0.5,0.1-1,0.3-1.5c0.2-0.4,0.5-0.8,0.9-1.1
		c0.4-0.3,0.9-0.6,1.5-0.7c0.6-0.2,1.2-0.3,1.9-0.3c0.5,0,1,0.1,1.5,0.2c0.5,0.1,1,0.3,1.4,0.6c0.2,0.1,0.4,0.2,0.6,0.4
		c0.2,0.1,0.3,0.2,0.5,0.4c0.1,0.1,0.2,0.2,0.3,0.3c0.1,0.1,0.1,0.2,0.1,0.3c0,0.1,0,0.1-0.1,0.2c0,0.1-0.1,0.1-0.2,0.2l-1.3,1.4
		c-0.1,0.1-0.2,0.1-0.3,0.1c-0.1,0-0.2,0-0.2-0.1c-0.1,0-0.1-0.1-0.2-0.2l-0.1-0.1c-0.1-0.1-0.2-0.2-0.4-0.3
		c-0.1-0.1-0.3-0.2-0.5-0.3c-0.2-0.1-0.3-0.2-0.5-0.2c-0.2-0.1-0.4-0.1-0.5-0.1c-0.2,0-0.4,0-0.5,0c-0.2,0-0.3,0.1-0.4,0.2
		c-0.1,0.1-0.2,0.2-0.3,0.3c-0.1,0.1-0.1,0.2-0.1,0.4s0,0.3,0.1,0.4c0.1,0.1,0.2,0.2,0.4,0.3c0.2,0.1,0.4,0.2,0.6,0.3
		c0.2,0.1,0.5,0.2,0.8,0.3c0.6,0.2,1.2,0.4,1.7,0.6c0.5,0.2,1,0.5,1.3,0.8c0.4,0.3,0.7,0.7,0.9,1.1c0.2,0.4,0.3,0.9,0.3,1.5
		c0,0.6-0.1,1.2-0.4,1.7c-0.3,0.5-0.6,1-1.1,1.3s-1,0.6-1.6,0.8c-0.6,0.2-1.3,0.3-2,0.3c-0.7,0-1.3-0.1-2-0.4
		c-0.6-0.2-1.2-0.6-1.8-1c-0.2-0.2-0.4-0.3-0.6-0.5c-0.2-0.2-0.3-0.3-0.4-0.4l0,0c0,0,0,0,0,0c0,0,0,0,0,0c0,0,0,0,0,0c0,0,0,0,0,0
		c-0.1-0.1-0.2-0.3-0.2-0.3c0-0.1,0.1-0.2,0.2-0.3l1.5-1.4c0.1-0.1,0.2-0.1,0.3-0.1c0.1,0,0.1,0,0.2,0.1
		C178.2,75.5,178.3,75.5,178.4,75.6"/>
	<path fill="#007B9A" d="M195.1,71c-0.1,0.3-0.2,0.6-0.3,1c-0.1,0.3-0.2,0.7-0.3,1c-0.1,0.3-0.2,0.7-0.3,1c-0.1,0.3-0.2,0.7-0.3,0.9
		h2.7L195.1,71z M193.5,67.3c0,0,0-0.1,0.1-0.1c0,0,0.1-0.1,0.1-0.1c0,0,0.1-0.1,0.1-0.1c0.1,0,0.1,0,0.1,0h2.2c0.1,0,0.2,0,0.3,0.1
		c0.1,0.1,0.1,0.1,0.2,0.2l0.2,0.5l4.5,11.7c0,0.1,0,0.2,0,0.3c-0.1,0.1-0.2,0.1-0.3,0.1h-2.5c-0.1,0-0.2,0-0.3-0.1
		c-0.1,0-0.1-0.1-0.2-0.2c-0.1-0.3-0.2-0.6-0.3-0.9c-0.1-0.3-0.2-0.6-0.3-0.9h-4.6c-0.1,0.3-0.2,0.6-0.3,0.9
		c-0.1,0.3-0.2,0.6-0.3,0.9c-0.1,0.2-0.2,0.3-0.4,0.3h-2.6c-0.1,0-0.2,0-0.3-0.1c-0.1-0.1-0.1-0.1,0-0.3L193.5,67.3z"/>
	<path fill="#007B9A" d="M206.6,79.6c-0.1-0.1-0.1-0.2-0.2-0.3c0-0.1-0.1-0.2-0.1-0.3l-4.4-11.6c0,0,0-0.1,0-0.1c0,0,0,0,0-0.1
		c0-0.2,0.1-0.2,0.3-0.2h2.8c0.2,0,0.4,0.1,0.5,0.3l2.6,7.9c0.2-0.7,0.5-1.3,0.7-2c0.2-0.7,0.4-1.3,0.6-2c0.2-0.7,0.4-1.3,0.6-2
		c0.2-0.7,0.4-1.3,0.7-2c0.1-0.2,0.2-0.3,0.5-0.3h2.7c0.1,0,0.2,0,0.3,0.1c0.1,0,0.1,0.1,0.1,0.2c0,0,0,0.1,0,0.1v0l-4.5,11.6
		c0,0.1-0.1,0.2-0.1,0.3c0,0.1-0.1,0.2-0.1,0.3c-0.1,0.1-0.1,0.2-0.2,0.2c-0.1,0.1-0.1,0.1-0.2,0.1h-2.1
		C206.8,79.8,206.7,79.7,206.6,79.6"/>
	<path fill="#007B9A" d="M220.6,71c-0.1,0.3-0.2,0.6-0.3,1c-0.1,0.3-0.2,0.7-0.3,1c-0.1,0.3-0.2,0.7-0.3,1c-0.1,0.3-0.2,0.7-0.3,0.9
		h2.7L220.6,71z M219,67.3c0,0,0-0.1,0.1-0.1c0,0,0.1-0.1,0.1-0.1c0,0,0.1-0.1,0.1-0.1c0.1,0,0.1,0,0.1,0h2.2c0.1,0,0.2,0,0.3,0.1
		c0.1,0.1,0.1,0.1,0.2,0.2l0.2,0.5l4.5,11.7c0,0.1,0,0.2,0,0.3c-0.1,0.1-0.2,0.1-0.3,0.1H224c-0.1,0-0.2,0-0.3-0.1
		c-0.1,0-0.1-0.1-0.2-0.2c-0.1-0.3-0.2-0.6-0.3-0.9c-0.1-0.3-0.2-0.6-0.3-0.9h-4.6c-0.1,0.3-0.2,0.6-0.3,0.9s-0.2,0.6-0.3,0.9
		c-0.1,0.2-0.2,0.3-0.4,0.3h-2.6c-0.1,0-0.2,0-0.3-0.1c-0.1-0.1-0.1-0.1,0-0.3L219,67.3z"/>
	<path fill="#007B9A" d="M230.4,67.3c0-0.1,0-0.2,0.1-0.3c0.1-0.1,0.2-0.1,0.3-0.1h2.8c0.1,0,0.2,0,0.3,0.1c0.1,0,0.2,0.1,0.2,0.2
		c0.7,1.2,1.5,2.4,2.2,3.5c0.7,1.1,1.5,2.3,2.2,3.5v-6.9c0-0.1,0.1-0.2,0.1-0.2c0.1-0.1,0.2-0.1,0.2-0.1h2.5c0.1,0,0.2,0,0.3,0.1
		c0.1,0.1,0.1,0.2,0.1,0.3v12.1c0,0.1,0,0.2-0.1,0.3c-0.1,0.1-0.2,0.1-0.3,0.1h-2.8c-0.1,0-0.1,0-0.2-0.1c-0.1-0.1-0.1-0.1-0.2-0.2
		c-0.8-1.3-1.5-2.5-2.3-3.8c-0.8-1.2-1.5-2.5-2.3-3.8v7.4c0,0.1,0,0.2-0.1,0.3c-0.1,0.1-0.2,0.1-0.3,0.1h-2.5c-0.1,0-0.2,0-0.3-0.1
		c-0.1-0.1-0.1-0.2-0.1-0.3V67.3z"/>
	<path fill="#007B9A" d="M246.3,67.3c0-0.1,0-0.2,0.1-0.3c0.1-0.1,0.2-0.1,0.3-0.1h2.8c0.1,0,0.2,0,0.3,0.1c0.1,0,0.2,0.1,0.2,0.2
		c0.7,1.2,1.5,2.4,2.2,3.5c0.7,1.1,1.5,2.3,2.2,3.5v-6.9c0-0.1,0.1-0.2,0.1-0.2c0.1-0.1,0.1-0.1,0.2-0.1h2.5c0.1,0,0.2,0,0.3,0.1
		c0.1,0.1,0.1,0.2,0.1,0.3v12.1c0,0.1,0,0.2-0.1,0.3c-0.1,0.1-0.2,0.1-0.3,0.1h-2.8c-0.1,0-0.1,0-0.2-0.1c-0.1-0.1-0.1-0.1-0.2-0.2
		c-0.8-1.3-1.5-2.5-2.3-3.8c-0.8-1.2-1.5-2.5-2.3-3.8v7.4c0,0.1,0,0.2-0.1,0.3c-0.1,0.1-0.2,0.1-0.3,0.1h-2.5c-0.1,0-0.2,0-0.3-0.1
		c-0.1-0.1-0.1-0.2-0.1-0.3V67.3z"/>
	<path fill="#007B9A" d="M267.5,71c-0.1,0.3-0.2,0.6-0.3,1c-0.1,0.3-0.2,0.7-0.3,1c-0.1,0.3-0.2,0.7-0.3,1c-0.1,0.3-0.2,0.7-0.3,0.9
		h2.7L267.5,71z M265.9,67.3c0,0,0-0.1,0.1-0.1c0,0,0.1-0.1,0.1-0.1c0,0,0.1-0.1,0.1-0.1c0.1,0,0.1,0,0.1,0h2.2c0.1,0,0.2,0,0.3,0.1
		c0.1,0.1,0.1,0.1,0.2,0.2l0.2,0.5l4.5,11.7c0,0.1,0,0.2,0,0.3c-0.1,0.1-0.2,0.1-0.3,0.1h-2.5c-0.1,0-0.2,0-0.3-0.1
		c-0.1,0-0.1-0.1-0.2-0.2c-0.1-0.3-0.2-0.6-0.3-0.9c-0.1-0.3-0.2-0.6-0.3-0.9h-4.6c-0.1,0.3-0.2,0.6-0.3,0.9
		c-0.1,0.3-0.2,0.6-0.3,0.9c-0.1,0.2-0.2,0.3-0.4,0.3h-2.6c-0.1,0-0.2,0-0.3-0.1c-0.1-0.1-0.1-0.1,0-0.3L265.9,67.3z"/>
	<path fill="#007B9A" d="M277.2,67.3c0-0.1,0-0.2,0.1-0.3c0.1-0.1,0.2-0.1,0.3-0.1h2.6c0.1,0,0.2,0,0.3,0.1c0.1,0.1,0.1,0.2,0.1,0.3
		v4.1h4.3v-4.1c0-0.1,0-0.2,0.1-0.3c0.1-0.1,0.2-0.1,0.3-0.1h2.5c0.1,0,0.2,0,0.3,0.1c0.1,0.1,0.1,0.2,0.1,0.3v12.1
		c0,0.1,0,0.2-0.1,0.3c-0.1,0.1-0.2,0.1-0.3,0.1h-2.6c-0.1,0-0.2,0-0.3-0.1c-0.1-0.1-0.1-0.2-0.1-0.3v-4.9h-4.3v4.9
		c0,0.1,0,0.2-0.1,0.3c-0.1,0.1-0.2,0.1-0.3,0.1h-2.5c-0.2,0-0.4-0.1-0.4-0.3V67.3z"/>
</g>
</svg>
