<?xml version="1.0" encoding="utf-8"?>
<!-- Generator: Adobe Illustrator 22.0.1, SVG Export Plug-In . SVG Version: 6.00 Build 0)  -->
<svg version="1.1" id="Layer_1" xmlns="http://www.w3.org/2000/svg" xmlns:xlink="http://www.w3.org/1999/xlink" x="0px" y="0px"
	 viewBox="0 0 566.1 159.5" enable-background="new 0 0 566.1 159.5" xml:space="preserve">
<path fill="#FFFFFF" d="M565.4,159.5c0-14.1-11-21-25.1-21c-5.6,0-10.7,1.8-14.9,4.8c-1-19.9-17.4-35.8-37.6-35.8
	c-6.4,0-12.4,1.6-17.7,4.4c2.4-6.2,3.8-13,3.8-20.1c0-30.5-24.7-55.2-55.2-55.2c-18.3,0-34.5,8.9-44.6,22.6l0,0l-10.6,10.2
	c-2-2.1-4.2-3.9-6.6-5.5l0,0l-12.3-5.3c-2.9-0.7-5.9-1.1-9.1-1.1c-6.9,0-13.4,1.8-19,5c-2.4-11-10.3-19.9-20.6-23.8l0,0l-6.3-1.7
	c-1.8-0.3-3.5-0.4-5.4-0.4c-1.2,0,0-0.1-1.2,0l-4.4-0.5l-4.1,2c-0.4,0.1-0.9,0.2-1.3,0.4c-10.9-17.3-28.8-29.8-49.8-33.5l0,0
	L213.1,4c-0.8,0-1.6,0-2.3,0c-1.5,0-3,0.1-4.5,0.1l0,0l-11,1.5c-29.8,6.4-52.9,30.7-57.5,61.1c-1.2-0.1-2.4-0.1-3.6-0.1
	c-24.8,0-45.5,17.8-50,41.3c-7.5,1.3-13.9,5.8-17.9,12.2c-6.9-4.8-15.7-7.8-25.3-7.8c-22.2,0-40.3,15.6-40.3,34.8
	c0,4.2,0.9,8.2,2.4,11.9L565.4,159.5 M141.7,112c0.1-0.2,0.3-0.4,0.4-0.6c0.4,0.2,0.7,0.4,1.1,0.5C142.7,111.9,142.2,112,141.7,112z
	"/>
</svg>
