<?xml version="1.0" encoding="utf-8"?>
<!-- Generator: Adobe Illustrator 22.0.1, SVG Export Plug-In . SVG Version: 6.00 Build 0)  -->
<svg version="1.1" id="Layer_1" xmlns="http://www.w3.org/2000/svg" xmlns:xlink="http://www.w3.org/1999/xlink" x="0px" y="0px"
	 viewBox="0 0 345 424.3" enable-background="new 0 0 345 424.3" xml:space="preserve">
<g>
	<path fill="#065A6E" d="M144.2,318.3c-11.6,17.5-47.2,52.2-47.2,52.2c28.5-2.6,8.1,32.9,8.1,32.9
		C198.8,321.5,144.2,318.3,144.2,318.3z"/>
	<path fill="#065A6E" d="M7.1,343.8c0,0,22.2-34.4,33-7.9c0,0,14.4-47.6,24.6-66C64.7,269.9,36.7,222.9,7.1,343.8z"/>
	<path fill="#065A6E" d="M202.1,182.1L202.1,182.1C202.2,182.1,202.2,182.1,202.1,182.1c0.1-0.1,0.1-0.1,0.1-0.2
		c0.2-0.3,0.1-0.7-0.1-1.1c0.2-7.9,2.6-49.9,24.4-87.5c1.4,0.8,3.3,0.4,4.2-1.1c0.9-1.5,0.4-3.3-1-4.2c-1.5-0.9-3.3-0.4-4.2,1
		c-0.9,1.4-0.4,3.3,1,4.2c-23.3,36.6-59.5,58-66.5,61.9c-0.6,0-0.9,0.2-1.1,0.5c0,0.1-0.1,0.1-0.1,0.2c-2.9,0.8-29.8,8.8-61.7,61.4
		c-33.8,55.7-52,119.2-52,119.2l24.6,14.9l24.6,14.9c0,0,48-45.3,81.8-101.1C207.9,212.8,202.9,185.2,202.1,182.1z M166.2,192.5
		c7.1,4.3,9.3,13.5,5,20.6c-4.3,7.1-13.5,9.3-20.5,5c-7.1-4.3-9.3-13.5-5-20.6C149.9,190.4,159.1,188.2,166.2,192.5z M138.5,238
		c7.1,4.3,9.3,13.5,5,20.6c-4.3,7.1-13.5,9.3-20.5,5c-7.1-4.3-9.3-13.5-5-20.6C122.2,236,131.4,233.7,138.5,238z M95.3,309.2
		c-7.1-4.3-9.3-13.5-5-20.6c4.3-7.1,13.5-9.3,20.5-5c7.1,4.3,9.3,13.5,5,20.5C111.5,311.2,102.3,313.5,95.3,309.2z"/>
	<path fill="#065A6E" d="M79.7,367.2c0,0-2.4,11.9-13,18.9c0,0,2.3-2.4,1.4-4.8c-0.2-0.4-0.4-0.8-0.8-1.2
		c-2.5-2.7-7.2,12.2-25.8,17.5c-3.9-19,7.3-30,3.7-31c-0.5-0.1-1-0.2-1.4-0.1c-2.6,0.3-3.6,3.5-3.6,3.5
		c1.2-12.6,10.7-20.2,10.8-20.2l-6.9-4.2c0,0-14.1,11.3-16,30c0,0,1.6-4.7,5.4-5.2c0.6-0.1,1.4,0,2.1,0.2
		c5.3,1.4-11.2,17.8-5.5,45.9c27.6-7.9,34.5-30.1,38.2-26c0.5,0.6,0.9,1.2,1.1,1.8c1.3,3.6-2.1,7.2-2.1,7.2
		c15.7-10.3,19.2-28,19.2-28L79.7,367.2z"/>
</g>
<path fill="#F2B826" d="M167.9,16.2l10,0.9c0.3,0,0.3,0.4,0,0.4L167,20.3c-0.2,0-0.2,0.2-0.1,0.4l7.1,8.2c0.2,0.2-0.1,0.5-0.3,0.3
	l-8.9-7c-0.1-0.1-0.3,0-0.4,0.1l-1.2,5.9c0,0.2-0.4,0.2-0.4,0l-0.9-5.5c0-0.2-0.3-0.3-0.4-0.1l-7.5,8.1c-0.2,0.2-0.5,0-0.4-0.3
	l6.7-9.9c0.1-0.2,0-0.4-0.2-0.4l-9.4,0c-0.3,0-0.3-0.4,0-0.5l9.7-1.7c0.2,0,0.2-0.2,0.1-0.4l-4.7-7.1c-0.1-0.2,0.1-0.5,0.3-0.3
	l5.4,5c0.1,0.1,0.4,0,0.4-0.1l1-6.7c0-0.3,0.4-0.3,0.5,0l0.6,5.9c0,0.2,0.3,0.3,0.4,0.1l5.4-5.9c0.2-0.2,0.5,0,0.4,0.2l-2.7,7.2
	C167.6,16,167.7,16.2,167.9,16.2"/>
<path fill="#F2B826" d="M74.2,65.5l17.1,5.7c0.4,0.1,0.3,0.8-0.1,0.8L71,72.3c-0.3,0-0.5,0.3-0.4,0.6l9.1,17.3
	c0.2,0.4-0.4,0.8-0.7,0.4L66.4,74.8c-0.2-0.2-0.6-0.2-0.7,0.1l-4.5,9.8c-0.2,0.4-0.8,0.3-0.8-0.2l0.6-10c0-0.3-0.4-0.6-0.6-0.4
	l-16.4,11c-0.4,0.3-0.9-0.3-0.5-0.6l15.9-14.6c0.2-0.2,0.1-0.6-0.2-0.7l-16.4-4c-0.5-0.1-0.4-0.8,0.1-0.8l17.8,1
	c0.3,0,0.5-0.3,0.4-0.6l-5.3-14.3c-0.2-0.5,0.5-0.8,0.7-0.4l7.3,10.9c0.2,0.3,0.6,0.2,0.7-0.1l4.5-11.2c0.2-0.4,0.8-0.3,0.8,0.2
	l-1.3,10.5c0,0.3,0.3,0.6,0.6,0.4l11.9-8c0.4-0.3,0.8,0.2,0.6,0.6L74,64.9C73.8,65.2,74,65.5,74.2,65.5"/>
<path fill="#F2B826" d="M324.5,91.7l13.4,8.6c0.3,0.2,0.1,0.8-0.3,0.7l-17.3-4.1c-0.3-0.1-0.5,0.2-0.4,0.4l4,16.8
	c0.1,0.4-0.5,0.6-0.7,0.2l-7.4-16.4c-0.1-0.3-0.4-0.3-0.6-0.1l-6,7.4c-0.3,0.3-0.8,0-0.6-0.3l2.7-8.5c0.1-0.3-0.2-0.6-0.5-0.5
	l-16.5,5.9c-0.4,0.2-0.7-0.4-0.3-0.7l16.8-9.1c0.3-0.1,0.3-0.5,0-0.6l-13.3-7c-0.4-0.2-0.1-0.8,0.3-0.7l15,4.7
	c0.3,0.1,0.5-0.1,0.5-0.4l-1.5-13.5c0-0.4,0.6-0.6,0.7-0.2l3.9,10.9c0.1,0.3,0.5,0.3,0.6,0.1l6.3-8.6c0.3-0.3,0.8,0,0.6,0.3
	l-3.4,8.8c-0.1,0.3,0.2,0.6,0.5,0.5l12-4.3c0.4-0.1,0.7,0.3,0.4,0.6l-9.1,8.2C324.3,91.2,324.3,91.5,324.5,91.7"/>
</svg>
